<svg xmlns="http://www.w3.org/2000/svg">
  <defs>
    <style>
      .ink { fill: var(--logo-ink, #16181d); }
      .can { fill: var(--logo-can, #f25f5c); }
      .tin { fill: var(--logo-tin, #b9c0c8); }
      .line { fill: none; stroke: var(--logo-ink, #16181d); stroke-linecap: round; stroke-linejoin: round; stroke-width: 7; }
      .wordmark { fill: var(--logo-ink, #16181d); font-family: Inter, Arial, sans-serif; font-size: 112px; font-weight: 800; letter-spacing: -5px; }
    </style>
    <symbol id="symbol" viewBox="0 0 160 160">
      <path class="can" d="M31 27h87l-8 101-35 12-35-12z"/>
      <path class="tin" d="M23 27c0-9 23-16 52-16s52 7 52 16-23 16-52 16-52-7-52-16z"/>
      <ellipse class="ink" cx="75" cy="27" rx="43" ry="9"/>
      <path d="M43 49l-5 69M60 51l-3 73" fill="none" stroke="var(--logo-yellow, #f6c945)" stroke-width="8"/>
      <path class="line" d="M75 66h29M75 84h29M75 102h29M108 117h15l17-22M123 117l17 22"/>
      <circle cx="141" cy="94" r="7" fill="var(--logo-blue, #2256a8)"/>
      <circle cx="141" cy="140" r="7" fill="var(--logo-red, #f25f5c)"/>
      <circle cx="123" cy="117" r="7" fill="var(--logo-yellow, #f6c945)"/>
    </symbol>
    <symbol id="lockup" viewBox="0 0 640 180">
      <use href="#symbol" width="160" height="160" y="10"/>
      <text class="wordmark" x="170" y="123">talkcan</text>
    </symbol>
  </defs>
</svg>
