<svg xmlns="http://www.w3.org/2000/svg" viewBox="0 0 640 180" role="img" aria-labelledby="title">
  <title id="title">Talkcan</title>
  <g transform="translate(0 10)"><path fill="#FFFFFF" d="M25 30c0-9 23-17 51-17s51 8 51 17v94c0 10-23 18-51 18s-51-8-51-18z"/>
<path fill="#FFFFFF" d="M33 33c12 6 28 9 43 9s31-3 43-9v87c-11 7-27 10-43 10s-32-3-43-10z"/>
<ellipse fill="#FFFFFF" cx="76" cy="30" rx="43" ry="11"/>
<ellipse fill="#FFFFFF" cx="76" cy="30" rx="35" ry="6"/>
<path fill="none" stroke="#FFFFFF" stroke-linecap="round" stroke-width="7" d="M53 67h45M53 84h45M53 101h45M119 109h16l13-16M135 109l13 16"/>
<circle fill="#FFFFFF" cx="149" cy="92" r="7"/>
<circle fill="#FFFFFF" cx="149" cy="126" r="7"/>
<circle fill="#FFFFFF" cx="135" cy="109" r="7"/></g>
  <path fill="#FFFFFF" d="M209.27008438110352 68.859375V83.01694869995117H171.09375V68.859375ZM179.20061111450195 54.3125H198.27135467529297V111.27277565002441Q198.27135467529297 113.71181678771973 199.41978549957275 114.89196395874023Q200.56821632385254 116.07211112976074 203.1625747680664 116.07211112976074Q204.13382530212402 116.07211112976074 205.91554832458496 115.83257961273193Q207.6972713470459 115.59304809570312 208.4432029724121 115.37429809570312L210.9238338470459 129.29780769348145Q207.6884994506836 130.21875 204.68723583221436 130.55453205108643Q201.68597221374512 130.89031410217285 198.9822120666504 130.89031410217285Q189.26531410217285 130.89031410217285 184.2329626083374 126.31187152862549Q179.20061111450195 121.73342895507812 179.20061111450195 112.99435043334961ZM233.15434455871582 131.08937072753906Q227.3159065246582 131.08937072753906 222.75168991088867 129.08890438079834Q218.18747329711914 127.08843803405762 215.60622596740723 123.0853157043457Q213.0249786376953 119.08219337463379 213.0249786376953 113.02500534057617Q213.0249786376953 107.94125747680664 214.812162399292 104.45219230651855Q216.59934616088867 100.96312713623047 219.76027965545654 98.78546714782715Q222.9212131500244 96.60780715942383 227.02824306488037 95.44952297210693Q231.13527297973633 94.29123878479004 235.77496528625488 93.91061592102051Q240.99433708190918 93.44905662536621 244.16948986053467 92.94155502319336Q247.34464263916016 92.43405342102051 248.80479621887207 91.40045833587646Q250.26494979858398 90.36686325073242 250.26494979858398 88.49874305725098V88.25374412536621Q250.26494979858398 86.12970352172852 249.27948665618896 84.6619062423706Q248.29402351379395 83.1941089630127 246.44778633117676 82.41646099090576Q244.60154914855957 81.63881301879883 241.95688247680664 81.63881301879883Q239.32752990722656 81.63881301879883 237.2909812927246 82.42411804199219Q235.25443267822266 83.20942306518555 233.9364719390869 84.61597728729248Q232.61851119995117 86.02253150939941 232.09132957458496 87.94752883911133L214.7749786376953 85.70316505432129Q216.00433921813965 80.45754432678223 219.53933334350586 76.50253391265869Q223.07432746887207 72.54752349853516 228.78043270111084 70.32063674926758Q234.4865379333496 68.09375 242.14063835144043 68.09375Q247.8216094970703 68.09375 252.77084159851074 69.43469524383545Q257.7200736999512 70.7756404876709 261.4399185180664 73.37877082824707Q265.15976333618164 75.98190116882324 267.2477283477783 79.77611351013184Q269.335693359375 83.57032585144043 269.335693359375 88.4899845123291V130.0H251.38496208190918V121.4381217956543H250.89496421813965Q249.2324562072754 124.56844711303711 246.7069845199585 126.71328926086426Q244.1815128326416 128.8581314086914 240.80839157104492 129.97375106811523Q237.43527030944824 131.08937072753906 233.15434455871582 131.08937072753906ZM238.96439743041992 118.44556999206543Q242.1887435913086 118.44556999206543 244.7776346206665 117.14401817321777Q247.3665256500244 115.84246635437012 248.89886379241943 113.54669952392578Q250.43120193481445 111.25093269348145 250.43120193481445 108.23875427246094V102.38066291809082Q249.62182426452637 102.8006591796875 248.3880844116211 103.18784427642822Q247.15434455871582 103.57502937316895 245.67889022827148 103.8878402709961Q244.20343589782715 104.20065116882324 242.72579193115234 104.43908786773682Q241.24814796447754 104.67752456665039 239.90939903259277 104.88315010070801Q237.10284614562988 105.27908706665039 235.13520431518555 106.22080421447754Q233.1675624847412 107.16252136230469 232.13944816589355 108.63142013549805Q231.1113338470459 110.1003189086914 231.1113338470459 112.1456127166748Q231.1113338470459 114.19528579711914 232.12851333618164 115.60074520111084Q233.14569282531738 117.00620460510254 234.90880393981934 117.72588729858398Q236.6719150543213 118.44556999206543 238.96439743041992 118.44556999206543ZM298.04790115356445 48.515625V130.0H278.97715759277344V48.515625ZM324.8766345977783 113.75132369995117V90.95743751525879H327.6372718811035L345.13278579711914 68.859375H366.8460330963135L341.19106674194336 100.18440437316895H336.19039154052734ZM307.69590759277344 130.0V48.515625H326.76665115356445V130.0ZM345.65339851379395 130.0 329.3959903717041 104.4500560760498 341.9654369354248 90.89622116088867 367.72101974487305 130.0ZM399.41907691955566 131.14624786376953Q389.85968589782715 131.14624786376953 382.9745216369629 127.18796634674072Q376.08935737609863 123.22968482971191 372.40232372283936 116.14109134674072Q368.7152900695801 109.05249786376953 368.7152900695801 99.64624786376953Q368.7152900695801 90.20062446594238 372.40232372283936 83.10546875Q376.08935737609863 76.01031303405762 382.9745216369629 72.05203151702881Q389.85968589782715 68.09375 399.41907691955566 68.09375Q405.30347061157227 68.09375 410.15535736083984 69.61625480651855Q415.0072441101074 71.13875961303711 418.6767807006836 73.96392440795898Q422.34631729125977 76.78908920288086 424.61475372314453 80.80644416809082Q426.8831901550293 84.82379913330078 427.6006832122803 89.8134994506836L409.9933910369873 92.7425651550293Q409.5449562072754 90.34943962097168 408.655743598938 88.48459720611572Q407.7665309906006 86.61975479125977 406.46935176849365 85.31600666046143Q405.1721725463867 84.01225852966309 403.46702671051025 83.34397888183594Q401.7618808746338 82.67569923400879 399.66845512390137 82.67569923400879Q395.9956741333008 82.67569923400879 393.42975425720215 84.6903715133667Q390.8638343811035 86.70504379272461 389.51087284088135 90.48721313476562Q388.1579113006592 94.26938247680664 388.1579113006592 99.5631217956543Q388.1579113006592 104.78904914855957 389.51087284088135 108.60621929168701Q390.8638343811035 112.42338943481445 393.42975425720215 114.4938440322876Q395.9956741333008 116.56429862976074 399.66845512390137 116.56429862976074Q401.7750053405762 116.56429862976074 403.493275642395 115.8686752319336Q405.21154594421387 115.17305183410645 406.542631149292 113.83539772033691Q407.8737163543701 112.49774360656738 408.7629289627075 110.54430770874023Q409.6521415710449 108.59087181091309 410.0590133666992 106.12993431091309L427.6531810760498 109.01743698120117Q426.9488124847412 114.1580753326416 424.67381381988525 118.23011779785156Q422.3988151550293 122.30216026306152 418.74349784851074 125.19513702392578Q415.0881805419922 128.08811378479004 410.2023878097534 129.61718082427979Q405.31659507751465 131.14624786376953 399.41907691955566 131.14624786376953ZM451.8262195587158 131.08937072753906Q445.9877815246582 131.08937072753906 441.4235649108887 129.08890438079834Q436.85934829711914 127.08843803405762 434.2781009674072 123.0853157043457Q431.6968536376953 119.08219337463379 431.6968536376953 113.02500534057617Q431.6968536376953 107.94125747680664 433.484037399292 104.45219230651855Q435.2712211608887 100.96312713623047 438.43215465545654 98.78546714782715Q441.5930881500244 96.60780715942383 445.70011806488037 95.44952297210693Q449.8071479797363 94.29123878479004 454.4468402862549 93.91061592102051Q459.6662120819092 93.44905662536621 462.84136486053467 92.94155502319336Q466.01651763916016 92.43405342102051 467.47667121887207 91.40045833587646Q468.936824798584 90.36686325073242 468.936824798584 88.49874305725098V88.25374412536621Q468.936824798584 86.12970352172852 467.95136165618896 84.6619062423706Q466.96589851379395 83.1941089630127 465.11966133117676 82.41646099090576Q463.27342414855957 81.63881301879883 460.62875747680664 81.63881301879883Q457.99940490722656 81.63881301879883 455.9628562927246 82.42411804199219Q453.92630767822266 83.20942306518555 452.6083469390869 84.61597728729248Q451.2903861999512 86.02253150939941 450.76320457458496 87.94752883911133L433.4468536376953 85.70316505432129Q434.67621421813965 80.45754432678223 438.21120834350586 76.50253391265869Q441.74620246887207 72.54752349853516 447.45230770111084 70.32063674926758Q453.1584129333496 68.09375 460.81251335144043 68.09375Q466.4934844970703 68.09375 471.44271659851074 69.43469524383545Q476.3919486999512 70.7756404876709 480.1117935180664 73.37877082824707Q483.83163833618164 75.98190116882324 485.9196033477783 79.77611351013184Q488.007568359375 83.57032585144043 488.007568359375 88.4899845123291V130.0H470.0568370819092V121.4381217956543H469.56683921813965Q467.9043312072754 124.56844711303711 465.3788595199585 126.71328926086426Q462.8533878326416 128.8581314086914 459.4802665710449 129.97375106811523Q456.10714530944824 131.08937072753906 451.8262195587158 131.08937072753906ZM457.6362724304199 118.44556999206543Q460.8606185913086 118.44556999206543 463.4495096206665 117.14401817321777Q466.0384006500244 115.84246635437012 467.57073879241943 113.54669952392578Q469.10307693481445 111.25093269348145 469.10307693481445 108.23875427246094V102.38066291809082Q468.29369926452637 102.8006591796875 467.0599594116211 103.18784427642822Q465.8262195587158 103.57502937316895 464.3507652282715 103.8878402709961Q462.87531089782715 104.20065116882324 461.39766693115234 104.43908786773682Q459.92002296447754 104.67752456665039 458.5812740325928 104.88315010070801Q455.7747211456299 105.27908706665039 453.80707931518555 106.22080421447754Q451.8394374847412 107.16252136230469 450.81132316589355 108.63142013549805Q449.7832088470459 110.1003189086914 449.7832088470459 112.1456127166748Q449.7832088470459 114.19528579711914 450.80038833618164 115.60074520111084Q451.8175678253174 117.00620460510254 453.58067893981934 117.72588729858398Q455.3437900543213 118.44556999206543 457.6362724304199 118.44556999206543ZM516.7197761535645 95.10502243041992V130.0H497.64903259277344V68.859375H515.5888290405273L515.9344577789307 84.30313301086426H515.1075897216797Q517.3563327789307 76.99033546447754 522.1502342224121 72.54204273223877Q526.9441356658936 68.09375 535.0116500854492 68.09375Q541.4407157897949 68.09375 546.193060874939 70.94844150543213Q550.945405960083 73.80313301086426 553.5638437271118 78.97875881195068Q556.1822814941406 84.15438461303711 556.1822814941406 91.08874893188477V130.0H537.1115379333496V94.77691078186035Q537.1115379333496 89.63412284851074 534.4799890518188 86.70179271697998Q531.8484401702881 83.76946258544922 527.1540870666504 83.76946258544922Q524.0675411224365 83.76946258544922 521.710524559021 85.12242412567139Q519.3535079956055 86.47538566589355 518.036642074585 88.99646472930908Q516.7197761535645 91.51754379272461 516.7197761535645 95.10502243041992Z"/>
</svg>
