<svg xmlns="http://www.w3.org/2000/svg" viewBox="0 0 160 160" role="img" aria-labelledby="title">
  <title id="title">Talkcan</title>
  <path fill="#B9C0C8" d="M25 30c0-9 23-17 51-17s51 8 51 17v94c0 10-23 18-51 18s-51-8-51-18z"/>
<path fill="#F25F5C" d="M33 33c12 6 28 9 43 9s31-3 43-9v87c-11 7-27 10-43 10s-32-3-43-10z"/>
<ellipse fill="#16181D" cx="76" cy="30" rx="43" ry="11"/>
<ellipse fill="#B9C0C8" cx="76" cy="30" rx="35" ry="6"/>
<path fill="none" stroke="#16181D" stroke-linecap="round" stroke-width="7" d="M53 67h45M53 84h45M53 101h45M119 109h16l13-16M135 109l13 16"/>
<circle fill="#2256A8" cx="149" cy="92" r="7"/>
<circle fill="#F25F5C" cx="149" cy="126" r="7"/>
<circle fill="#F6C945" cx="135" cy="109" r="7"/>
</svg>
