<svg xmlns="http://www.w3.org/2000/svg" viewBox="0 0 160 160" role="img" aria-labelledby="title">
  <title id="title">Talkcan</title>
  <g transform="scale(0.078125)">
<defs>
  <clipPath id="can-body">
    <path d="M280 480H1200L1170 1470C1166 1542 984 1595 760 1595S350 1542 340 1470Z"/>
  </clipPath>
</defs>
<ellipse fill="#B9C0C8" cx="760" cy="1560" rx="470" ry="132"/>
<path fill="#F25F5C" d="M280 480H1200L1170 1470C1166 1542 984 1595 760 1595S350 1542 340 1470Z"/>
<path fill="#F7F3E8" clip-path="url(#can-body)" d="M420 450L585 460L665 1620H488Z"/>
<path fill="none" stroke="#16181D" stroke-linecap="round" stroke-width="54" d="M530 830H958M530 960H958M530 1090H958"/>
<path fill="none" stroke="#16181D" stroke-linecap="round" stroke-width="58" d="M365 1460C435 1540 610 1570 760 1570S1085 1540 1155 1460"/>
<path fill="none" stroke="#16181D" stroke-linecap="round" stroke-width="56" d="M1160 1215L1470 1400"/>
<path fill="none" stroke="#2256A8" stroke-linecap="round" stroke-width="56" d="M1470 1400L1710 1090"/>
<path fill="none" stroke="#F6C945" stroke-linecap="round" stroke-width="56" d="M1470 1400H1820"/>
<path fill="none" stroke="#F25F5C" stroke-linecap="round" stroke-width="56" d="M1470 1400L1710 1740"/>
<circle fill="#16181D" cx="1470" cy="1400" r="66"/>
<circle fill="#2256A8" cx="1710" cy="1090" r="60"/>
<circle fill="#F6C945" cx="1820" cy="1400" r="60"/>
<circle fill="#F25F5C" cx="1710" cy="1740" r="60"/>
<ellipse fill="#B9C0C8" cx="740" cy="480" rx="470" ry="158"/>
<ellipse fill="#16181D" cx="740" cy="480" rx="420" ry="122"/>
</g>
</svg>
