<svg xmlns="http://www.w3.org/2000/svg" viewBox="0 0 1200 630" role="img" aria-labelledby="title">
  <title id="title">Talkcan — A programmable walkie-talkie for your tools.</title>
  <rect width="1200" height="630" fill="#F7F3E8"/>
<rect x="60" y="60" width="1080" height="510" rx="32" fill="#FFFFFF"/>
<rect x="60" y="60" width="12" height="510" fill="#F6C945"/>
<g transform="translate(100 170) scale(1.55)">
  <g transform="translate(0 10)"><path fill="#B9C0C8" d="M25 30c0-9 23-17 51-17s51 8 51 17v94c0 10-23 18-51 18s-51-8-51-18z"/>
<path fill="#F25F5C" d="M33 33c12 6 28 9 43 9s31-3 43-9v87c-11 7-27 10-43 10s-32-3-43-10z"/>
<ellipse fill="#16181D" cx="76" cy="30" rx="43" ry="11"/>
<ellipse fill="#B9C0C8" cx="76" cy="30" rx="35" ry="6"/>
<path fill="none" stroke="#16181D" stroke-linecap="round" stroke-width="7" d="M53 67h45M53 84h45M53 101h45M119 109h16l13-16M135 109l13 16"/>
<circle fill="#2256A8" cx="149" cy="92" r="7"/>
<circle fill="#F25F5C" cx="149" cy="126" r="7"/>
<circle fill="#F6C945" cx="135" cy="109" r="7"/></g>
  <path fill="#16181D" d="M209.27008438110352 68.859375V83.01694869995117H171.09375V68.859375ZM179.20061111450195 54.3125H198.27135467529297V111.27277565002441Q198.27135467529297 113.71181678771973 199.41978549957275 114.89196395874023Q200.56821632385254 116.07211112976074 203.1625747680664 116.07211112976074Q204.13382530212402 116.07211112976074 205.91554832458496 115.83257961273193Q207.6972713470459 115.59304809570312 208.4432029724121 115.37429809570312L210.9238338470459 129.29780769348145Q207.6884994506836 130.21875 204.68723583221436 130.55453205108643Q201.68597221374512 130.89031410217285 198.9822120666504 130.89031410217285Q189.26531410217285 130.89031410217285 184.2329626083374 126.31187152862549Q179.20061111450195 121.73342895507812 179.20061111450195 112.99435043334961ZM233.15434455871582 131.08937072753906Q227.3159065246582 131.08937072753906 222.75168991088867 129.08890438079834Q218.18747329711914 127.08843803405762 215.60622596740723 123.0853157043457Q213.0249786376953 119.08219337463379 213.0249786376953 113.02500534057617Q213.0249786376953 107.94125747680664 214.812162399292 104.45219230651855Q216.59934616088867 100.96312713623047 219.76027965545654 98.78546714782715Q222.9212131500244 96.60780715942383 227.02824306488037 95.44952297210693Q231.13527297973633 94.29123878479004 235.77496528625488 93.91061592102051Q240.99433708190918 93.44905662536621 244.16948986053467 92.94155502319336Q247.34464263916016 92.43405342102051 248.80479621887207 91.40045833587646Q250.26494979858398 90.36686325073242 250.26494979858398 88.49874305725098V88.25374412536621Q250.26494979858398 86.12970352172852 249.27948665618896 84.6619062423706Q248.29402351379395 83.1941089630127 246.44778633117676 82.41646099090576Q244.60154914855957 81.63881301879883 241.95688247680664 81.63881301879883Q239.32752990722656 81.63881301879883 237.2909812927246 82.42411804199219Q235.25443267822266 83.20942306518555 233.9364719390869 84.61597728729248Q232.61851119995117 86.02253150939941 232.09132957458496 87.94752883911133L214.7749786376953 85.70316505432129Q216.00433921813965 80.45754432678223 219.53933334350586 76.50253391265869Q223.07432746887207 72.54752349853516 228.78043270111084 70.32063674926758Q234.4865379333496 68.09375 242.14063835144043 68.09375Q247.8216094970703 68.09375 252.77084159851074 69.43469524383545Q257.7200736999512 70.7756404876709 261.4399185180664 73.37877082824707Q265.15976333618164 75.98190116882324 267.2477283477783 79.77611351013184Q269.335693359375 83.57032585144043 269.335693359375 88.4899845123291V130.0H251.38496208190918V121.4381217956543H250.89496421813965Q249.2324562072754 124.56844711303711 246.7069845199585 126.71328926086426Q244.1815128326416 128.8581314086914 240.80839157104492 129.97375106811523Q237.43527030944824 131.08937072753906 233.15434455871582 131.08937072753906ZM238.96439743041992 118.44556999206543Q242.1887435913086 118.44556999206543 244.7776346206665 117.14401817321777Q247.3665256500244 115.84246635437012 248.89886379241943 113.54669952392578Q250.43120193481445 111.25093269348145 250.43120193481445 108.23875427246094V102.38066291809082Q249.62182426452637 102.8006591796875 248.3880844116211 103.18784427642822Q247.15434455871582 103.57502937316895 245.67889022827148 103.8878402709961Q244.20343589782715 104.20065116882324 242.72579193115234 104.43908786773682Q241.24814796447754 104.67752456665039 239.90939903259277 104.88315010070801Q237.10284614562988 105.27908706665039 235.13520431518555 106.22080421447754Q233.1675624847412 107.16252136230469 232.13944816589355 108.63142013549805Q231.1113338470459 110.1003189086914 231.1113338470459 112.1456127166748Q231.1113338470459 114.19528579711914 232.12851333618164 115.60074520111084Q233.14569282531738 117.00620460510254 234.90880393981934 117.72588729858398Q236.6719150543213 118.44556999206543 238.96439743041992 118.44556999206543ZM298.04790115356445 48.515625V130.0H278.97715759277344V48.515625ZM324.8766345977783 113.75132369995117V90.95743751525879H327.6372718811035L345.13278579711914 68.859375H366.8460330963135L341.19106674194336 100.18440437316895H336.19039154052734ZM307.69590759277344 130.0V48.515625H326.76665115356445V130.0ZM345.65339851379395 130.0 329.3959903717041 104.4500560760498 341.9654369354248 90.89622116088867 367.72101974487305 130.0ZM399.41907691955566 131.14624786376953Q389.85968589782715 131.14624786376953 382.9745216369629 127.18796634674072Q376.08935737609863 123.22968482971191 372.40232372283936 116.14109134674072Q368.7152900695801 109.05249786376953 368.7152900695801 99.64624786376953Q368.7152900695801 90.20062446594238 372.40232372283936 83.10546875Q376.08935737609863 76.01031303405762 382.9745216369629 72.05203151702881Q389.85968589782715 68.09375 399.41907691955566 68.09375Q405.30347061157227 68.09375 410.15535736083984 69.61625480651855Q415.0072441101074 71.13875961303711 418.6767807006836 73.96392440795898Q422.34631729125977 76.78908920288086 424.61475372314453 80.80644416809082Q426.8831901550293 84.82379913330078 427.6006832122803 89.8134994506836L409.9933910369873 92.7425651550293Q409.5449562072754 90.34943962097168 408.655743598938 88.48459720611572Q407.7665309906006 86.61975479125977 406.46935176849365 85.31600666046143Q405.1721725463867 84.01225852966309 403.46702671051025 83.34397888183594Q401.7618808746338 82.67569923400879 399.66845512390137 82.67569923400879Q395.9956741333008 82.67569923400879 393.42975425720215 84.6903715133667Q390.8638343811035 86.70504379272461 389.51087284088135 90.48721313476562Q388.1579113006592 94.26938247680664 388.1579113006592 99.5631217956543Q388.1579113006592 104.78904914855957 389.51087284088135 108.60621929168701Q390.8638343811035 112.42338943481445 393.42975425720215 114.4938440322876Q395.9956741333008 116.56429862976074 399.66845512390137 116.56429862976074Q401.7750053405762 116.56429862976074 403.493275642395 115.8686752319336Q405.21154594421387 115.17305183410645 406.542631149292 113.83539772033691Q407.8737163543701 112.49774360656738 408.7629289627075 110.54430770874023Q409.6521415710449 108.59087181091309 410.0590133666992 106.12993431091309L427.6531810760498 109.01743698120117Q426.9488124847412 114.1580753326416 424.67381381988525 118.23011779785156Q422.3988151550293 122.30216026306152 418.74349784851074 125.19513702392578Q415.0881805419922 128.08811378479004 410.2023878097534 129.61718082427979Q405.31659507751465 131.14624786376953 399.41907691955566 131.14624786376953ZM451.8262195587158 131.08937072753906Q445.9877815246582 131.08937072753906 441.4235649108887 129.08890438079834Q436.85934829711914 127.08843803405762 434.2781009674072 123.0853157043457Q431.6968536376953 119.08219337463379 431.6968536376953 113.02500534057617Q431.6968536376953 107.94125747680664 433.484037399292 104.45219230651855Q435.2712211608887 100.96312713623047 438.43215465545654 98.78546714782715Q441.5930881500244 96.60780715942383 445.70011806488037 95.44952297210693Q449.8071479797363 94.29123878479004 454.4468402862549 93.91061592102051Q459.6662120819092 93.44905662536621 462.84136486053467 92.94155502319336Q466.01651763916016 92.43405342102051 467.47667121887207 91.40045833587646Q468.936824798584 90.36686325073242 468.936824798584 88.49874305725098V88.25374412536621Q468.936824798584 86.12970352172852 467.95136165618896 84.6619062423706Q466.96589851379395 83.1941089630127 465.11966133117676 82.41646099090576Q463.27342414855957 81.63881301879883 460.62875747680664 81.63881301879883Q457.99940490722656 81.63881301879883 455.9628562927246 82.42411804199219Q453.92630767822266 83.20942306518555 452.6083469390869 84.61597728729248Q451.2903861999512 86.02253150939941 450.76320457458496 87.94752883911133L433.4468536376953 85.70316505432129Q434.67621421813965 80.45754432678223 438.21120834350586 76.50253391265869Q441.74620246887207 72.54752349853516 447.45230770111084 70.32063674926758Q453.1584129333496 68.09375 460.81251335144043 68.09375Q466.4934844970703 68.09375 471.44271659851074 69.43469524383545Q476.3919486999512 70.7756404876709 480.1117935180664 73.37877082824707Q483.83163833618164 75.98190116882324 485.9196033477783 79.77611351013184Q488.007568359375 83.57032585144043 488.007568359375 88.4899845123291V130.0H470.0568370819092V121.4381217956543H469.56683921813965Q467.9043312072754 124.56844711303711 465.3788595199585 126.71328926086426Q462.8533878326416 128.8581314086914 459.4802665710449 129.97375106811523Q456.10714530944824 131.08937072753906 451.8262195587158 131.08937072753906ZM457.6362724304199 118.44556999206543Q460.8606185913086 118.44556999206543 463.4495096206665 117.14401817321777Q466.0384006500244 115.84246635437012 467.57073879241943 113.54669952392578Q469.10307693481445 111.25093269348145 469.10307693481445 108.23875427246094V102.38066291809082Q468.29369926452637 102.8006591796875 467.0599594116211 103.18784427642822Q465.8262195587158 103.57502937316895 464.3507652282715 103.8878402709961Q462.87531089782715 104.20065116882324 461.39766693115234 104.43908786773682Q459.92002296447754 104.67752456665039 458.5812740325928 104.88315010070801Q455.7747211456299 105.27908706665039 453.80707931518555 106.22080421447754Q451.8394374847412 107.16252136230469 450.81132316589355 108.63142013549805Q449.7832088470459 110.1003189086914 449.7832088470459 112.1456127166748Q449.7832088470459 114.19528579711914 450.80038833618164 115.60074520111084Q451.8175678253174 117.00620460510254 453.58067893981934 117.72588729858398Q455.3437900543213 118.44556999206543 457.6362724304199 118.44556999206543ZM516.7197761535645 95.10502243041992V130.0H497.64903259277344V68.859375H515.5888290405273L515.9344577789307 84.30313301086426H515.1075897216797Q517.3563327789307 76.99033546447754 522.1502342224121 72.54204273223877Q526.9441356658936 68.09375 535.0116500854492 68.09375Q541.4407157897949 68.09375 546.193060874939 70.94844150543213Q550.945405960083 73.80313301086426 553.5638437271118 78.97875881195068Q556.1822814941406 84.15438461303711 556.1822814941406 91.08874893188477V130.0H537.1115379333496V94.77691078186035Q537.1115379333496 89.63412284851074 534.4799890518188 86.70179271697998Q531.8484401702881 83.76946258544922 527.1540870666504 83.76946258544922Q524.0675411224365 83.76946258544922 521.710524559021 85.12242412567139Q519.3535079956055 86.47538566589355 518.036642074585 88.99646472930908Q516.7197761535645 91.51754379272461 516.7197761535645 95.10502243041992Z"/>
</g>
<path fill="#16181D" d="M110.94480550289154 490.0 120.78918838500977 462.353515625H125.98000264167786L135.9910051226616 490.0H131.41842299699783L126.03271996974945 474.61960685253143Q125.40446192026138 472.744113445282 124.65503951907158 470.2039875984192Q123.90561711788177 467.6638617515564 122.92184609174728 464.1050740480423H123.77683848142624Q122.81496185064316 467.6942917108536 122.07036271691322 470.26484751701355Q121.32576358318329 472.8354033231735 120.74982988834381 474.61960685253143L115.52777934074402 490.0ZM116.2788953781128 482.7154120206833V479.18113362789154H130.65691524744034V482.7154120206833ZM149.81688261032104 497.755859375V469.255859375H153.79349279403687V472.63392347097397H154.13118946552277Q154.493747651577 471.9871107339859 155.15132468938828 471.1345231831074Q155.80890172719955 470.28193563222885 156.99139216542244 469.6390146911144Q158.17388260364532 468.99609375 160.10951113700867 468.99609375Q162.61031585931778 468.99609375 164.5630121231079 470.2581850886345Q166.51570838689804 471.520276427269 167.64661625027657 473.91308933496475Q168.7775241136551 476.3059022426605 168.7775241136551 479.6769143342972Q168.7775241136551 483.02974432706833 167.6642428636551 485.4318345785141Q166.5509616136551 487.83392482995987 164.59659549593925 489.1229201257229Q162.64222937822342 490.4119154214859 160.11136728525162 490.4119154214859Q158.2380822300911 490.4119154214859 157.04371652007103 489.7697362601757Q155.84935081005096 489.1275570988655 155.17321908473969 488.27144354581833Q154.4970873594284 487.41532999277115 154.13118946552277 486.7533022761345H153.89814150333405V497.755859375ZM159.20628607273102 486.93367367982864Q160.99088257551193 486.93367367982864 162.19211739301682 485.9688265323639Q163.3933522105217 485.00397938489914 164.00194799900055 483.3522362112999Q164.6105437874794 481.70049303770065 164.6105437874794 479.646484375Q164.6105437874794 477.6043509840965 164.00955548882484 475.98303776979446Q163.4085671901703 474.3617245554924 162.2073323726654 473.41803002357483Q161.00609755516052 472.47433549165726 159.20628607273102 472.47433549165726Q157.4554592370987 472.47433549165726 156.256822347641 473.37238508462906Q155.0581854581833 474.27043467760086 154.44624996185303 475.87653291225433Q153.83431446552277 477.4826311469078 153.83431446552277 479.646484375Q153.83431446552277 481.8036581873894 154.45385745167732 483.4461240172386Q155.07340043783188 485.08858984708786 156.27964481711388 486.01113176345825Q157.48588919639587 486.93367367982864 159.20628607273102 486.93367367982864ZM173.30711698532104 490.0V469.255859375H177.2570095062256V472.5875333547592H177.4796657562256Q178.05152136087418 470.8968348503113 179.48320281505585 469.93124932050705Q180.91488426923752 468.9656637907028 182.733616232872 468.9656637907028Q183.12474822998047 468.9656637907028 183.62999257445335 468.99423760175705Q184.13523691892624 469.0228114128113 184.45882958173752 469.06474405527115V472.96083545684814Q184.2369185090065 472.89366871118546 183.6047618687153 472.81778010725975Q182.97260522842407 472.74189150333405 182.32133501768112 472.74189150333405Q180.90709388256073 472.74189150333405 179.783976405859 473.3400955796242Q178.66085892915726 473.9382996559143 178.02461740374565 474.9870120882988Q177.38837587833405 476.0357245206833 177.38837587833405 477.40580427646637V490.0ZM196.72534775733948 490.43195366859436Q193.80484402179718 490.43195366859436 191.62856683135033 489.09434631466866Q189.45228964090347 487.75673896074295 188.24976095557213 485.34629943966866Q187.04723227024078 482.93585991859436 187.04723227024078 479.74445366859436Q187.04723227024078 476.5074024796486 188.24976095557213 474.08935546875Q189.45228964090347 471.6713084578514 191.62856683135033 470.3337011039257Q193.80484402179718 468.99609375 196.72534775733948 468.99609375Q199.66106647253036 468.99609375 201.8416114449501 470.3337011039257Q204.02215641736984 471.6713084578514 205.2246851027012 474.08935546875Q206.42721378803253 476.5074024796486 206.42721378803253 479.74445366859436Q206.42721378803253 482.93585991859436 205.2246851027012 485.34629943966866Q204.02215641736984 487.75673896074295 201.8416114449501 489.09434631466866Q199.66106647253036 490.43195366859436 196.72534775733948 490.43195366859436ZM196.72534775733948 486.9804295897484Q198.61830526590347 486.9804295897484 199.85423782467842 485.98775041103363Q201.09017038345337 484.9950712323189 201.68948882818222 483.348523914814Q202.28880727291107 481.7019765973091 202.28880727291107 479.73777425289154Q202.28880727291107 477.75501722097397 201.68948882818222 476.0982644855976Q201.09017038345337 474.44151175022125 199.85423782467842 473.4445647895336Q198.61830526590347 472.447617828846 196.72534775733948 472.447617828846Q194.84426552057266 472.447617828846 193.6218780875206 473.4445647895336Q192.39949065446854 474.44151175022125 191.80017220973969 476.0906569957733Q191.20085376501083 477.7398022413254 191.20085376501083 479.73777425289154Q191.20085376501083 481.7019765973091 191.80017220973969 483.348523914814Q192.39949065446854 484.9950712323189 193.6218780875206 485.98775041103363Q194.84426552057266 486.9804295897484 196.72534775733948 486.9804295897484ZM219.63036769628525 498.201171875Q217.23273491859436 498.201171875 215.47171285748482 497.59332126379013Q213.71069079637527 496.98547065258026 212.56568232178688 495.9588423073292Q211.4206738471985 494.9322139620781 210.83471423387527 493.68348824977875L214.23501813411713 492.07961535453796Q214.62021589279175 492.66668593883514 215.24050065875053 493.33187386393547Q215.86078542470932 493.9970617890358 216.911540299654 494.45388036966324Q217.9622951745987 494.9106989502907 219.62368828058243 494.9106989502907Q221.98978692293167 494.9106989502907 223.4661886394024 493.7933328151703Q224.9425903558731 492.6759666800499 224.9425903558731 490.2824051976204V486.23970526456833H224.5870841741562Q224.22786569595337 486.91360825300217 223.5660208761692 487.7166556715965Q222.90417605638504 488.5197030901909 221.7257671058178 489.09953877329826Q220.54735815525055 489.67937445640564 218.65032255649567 489.67937445640564Q216.21409004926682 489.67937445640564 214.25211644172668 488.5278694629669Q212.29014283418655 487.3763644695282 211.14476177096367 485.119372010231Q209.99938070774078 482.86237955093384 209.99938070774078 479.55519449710846Q209.99938070774078 476.24504232406616 211.1395659148693 473.8826593756676Q212.27975112199783 471.520276427269 214.24933221936226 470.2581850886345Q216.21891331672668 468.99609375 218.7045030593872 468.99609375Q220.62491661310196 468.99609375 221.81668439507484 469.63140720129013Q223.00845217704773 470.26672065258026 223.6862537562847 471.1269156932831Q224.3640553355217 471.9871107339859 224.72661352157593 472.63392347097397H225.01198583841324V469.255859375H229.00381100177765V490.3009666800499Q229.00381100177765 493.0162578821182 227.76936879754066 494.7691169679165Q226.53492659330368 496.52197605371475 224.41282990574837 497.3615739643574Q222.29073321819305 498.201171875 219.63036769628525 498.201171875ZM219.60104870796204 486.289821267128Q221.34000027179718 486.289821267128 222.53696730732918 485.48046362400055Q223.73393434286118 484.6711059808731 224.35347732901573 483.1460922062397Q224.9730203151703 481.6210784316063 224.9730203151703 479.4943345785141Q224.9730203151703 477.40655624866486 224.36108481884003 475.83088797330856Q223.74914932250977 474.25521969795227 222.55218228697777 473.36477759480476Q221.35521525144577 472.47433549165726 219.60104870796204 472.47433549165726Q217.80457693338394 472.47433549165726 216.59406477212906 473.41042253375053Q215.38355261087418 474.3465095758438 214.77495682239532 475.9297853410244Q214.16636103391647 477.513061106205 214.16636103391647 479.4943345785141Q214.16636103391647 481.5179132819176 214.78256431221962 483.0505345463753Q215.39876759052277 484.583155810833 216.60927975177765 485.4364885389805Q217.81979191303253 486.289821267128 219.60104870796204 486.289821267128ZM234.50047636032104 490.0V469.255859375H238.4503688812256V472.5875333547592H238.6730251312256Q239.24488073587418 470.8968348503113 240.67656219005585 469.93124932050705Q242.10824364423752 468.9656637907028 243.926975607872 468.9656637907028Q244.31810760498047 468.9656637907028 244.82335194945335 468.99423760175705Q245.32859629392624 469.0228114128113 245.65218895673752 469.06474405527115V472.96083545684814Q245.4302778840065 472.89366871118546 244.7981212437153 472.81778010725975Q244.16596460342407 472.74189150333405 243.51469439268112 472.74189150333405Q242.10045325756073 472.74189150333405 240.977335780859 473.3400955796242Q239.85421830415726 473.9382996559143 239.21797677874565 474.9870120882988Q238.58173525333405 476.0357245206833 238.58173525333405 477.40580427646637V490.0ZM255.00006633996964 490.4557042121887Q253.02992975711823 490.4557042121887 251.43830811977386 489.72854539752007Q249.8466864824295 489.0013865828514 248.91709595918655 487.58937418460846Q247.9875054359436 486.1773617863655 247.9875054359436 484.1330064535141Q247.9875054359436 482.36511528491974 248.66920560598373 481.2351354956627Q249.35090577602386 480.10515570640564 250.5040806233883 479.44164103269577Q251.65725547075272 478.7781263589859 253.0776171386242 478.44432827830315Q254.49797880649567 478.1105301976204 255.97530180215836 477.93834215402603Q257.8107323050499 477.7171694636345 258.95796951651573 477.57726752758026Q260.10520672798157 477.43736559152603 260.6544261574745 477.1135866343975Q261.20364558696747 476.789807677269 261.20364558696747 476.05912286043167V475.9544741511345Q261.20364558696747 474.7925740480423 260.7562906444073 473.9878533780575Q260.3089357018471 473.18313270807266 259.4242449402809 472.7524763047695Q258.53955417871475 472.32181990146637 257.22253715991974 472.32181990146637Q255.87842988967896 472.32181990146637 254.9076451063156 472.73893117904663Q253.93686032295227 473.1560424566269 253.32826453447342 473.80007776618004Q252.71966874599457 474.4441130757332 252.42242115736008 475.15104734897614L248.5812554359436 474.16356402635574Q249.28893488645554 472.297703564167 250.60669028759003 471.16568472981453Q251.92444568872452 470.03366589546204 253.62906190752983 469.514879822731Q255.33367812633514 468.99609375 257.16650050878525 468.99609375Q258.4159646034241 468.99609375 259.8261174559593 469.29500779509544Q261.23627030849457 469.5939218401909 262.4768364429474 470.369506418705Q263.7174025774002 471.1450909972191 264.50115352869034 472.56155747175217Q265.28490447998047 473.97802394628525 265.28490447998047 476.2283437848091V490.0H261.3361229300499V487.15964925289154H261.12682551145554Q260.7241908311844 487.9634350538254 259.92652556300163 488.72343546152115Q259.1288602948189 489.4834358692169 257.90907418727875 489.9695700407028Q256.6892880797386 490.4557042121887 255.00006633996964 490.4557042121887ZM255.90589272975922 487.1882366538048Q257.5810172557831 487.1882366538048 258.7661090195179 486.531397998333Q259.9512007832527 485.8745593428612 260.5841026008129 484.80506348609924Q261.2170044183731 483.7355676293373 261.2170044183731 482.5306239128113V479.8650489449501Q260.99620431661606 480.08288192749023 260.37313532829285 480.2626774609089Q259.75006633996964 480.44247299432755 258.9588907957077 480.5808913707733Q258.16771525144577 480.7193097472191 257.4188449382782 480.81635096669197Q256.6699746251106 480.91339218616486 256.19423216581345 480.97239595651627Q255.04829221963882 481.11749374866486 254.0901244878769 481.4692910313606Q253.13195675611496 481.8210883140564 252.56789153814316 482.47013318538666Q252.00382632017136 483.1191780567169 252.00382632017136 484.1897882819176Q252.00382632017136 485.1757880449295 252.5103713274002 485.84097597002983Q253.01691633462906 486.50616389513016 253.8949276804924 486.84720027446747Q254.77293902635574 487.1882366538048 255.90589272975922 487.1882366538048ZM270.77489042282104 490.0V469.255859375H274.66318464279175L274.765232026577 474.0681960582733H274.45871049165726Q274.8988271355629 472.3029062151909 275.8256334364414 471.1655052304268Q276.75243973731995 470.0281042456627 277.9963455796242 469.4664540588856Q279.2402514219284 468.90480387210846 280.59288746118546 468.90480387210846Q282.8465402126312 468.90480387210846 284.2390698492527 470.3064245581627Q285.6315994858742 471.7080452442169 286.119955599308 474.2054966688156H285.6078489422798Q286.0090000629425 472.4999557733536 287.0157764554024 471.3163543641567Q288.02255284786224 470.13275295495987 289.4334508776665 469.51877841353416Q290.8443489074707 468.90480387210846 292.47567784786224 468.90480387210846Q294.30887961387634 468.90480387210846 295.79659432172775 469.7007992863655Q297.28430902957916 470.49679470062256 298.15897727012634 472.07227328419685Q299.0336455106735 473.64775186777115 299.0336455106735 476.009765625V490.0H294.9523866176605V476.42649072408676Q294.9523866176605 474.34167951345444 293.79419881105423 473.41190269589424Q292.63601100444794 472.48212587833405 291.0596009492874 472.48212587833405Q289.78154945373535 472.48212587833405 288.8504719734192 473.0248521864414Q287.919394493103 473.5675784945488 287.41711726784706 474.5196222960949Q286.9148400425911 475.471666097641 286.9148400425911 476.71557533741V490.0H282.8936958909035V476.15262109041214Q282.8936958909035 474.49382930994034 281.8267979621887 473.4879775941372Q280.75990003347397 472.48212587833405 279.1074150800705 472.48212587833405Q277.9781736731529 472.48212587833405 277.0031211078167 473.00963720679283Q276.02806854248047 473.5371485352516 275.44210892915726 474.56526723504066Q274.85614931583405 475.5933859348297 274.85614931583405 477.1111648082733V490.0ZM304.52586698532104 490.0V469.255859375H308.41416120529175L308.516208589077 474.0681960582733H308.20968705415726Q308.6498036980629 472.3029062151909 309.5766099989414 471.1655052304268Q310.50341629981995 470.0281042456627 311.7473221421242 469.4664540588856Q312.9912279844284 468.90480387210846 314.34386402368546 468.90480387210846Q316.5975167751312 468.90480387210846 317.9900464117527 470.3064245581627Q319.3825760483742 471.7080452442169 319.870932161808 474.2054966688156H319.3588255047798Q319.7599766254425 472.4999557733536 320.7667530179024 471.3163543641567Q321.77352941036224 470.13275295495987 323.1844274401665 469.51877841353416Q324.5953254699707 468.90480387210846 326.22665441036224 468.90480387210846Q328.05985617637634 468.90480387210846 329.54757088422775 469.7007992863655Q331.03528559207916 470.49679470062256 331.90995383262634 472.07227328419685Q332.7846220731735 473.64775186777115 332.7846220731735 476.009765625V490.0H328.7033631801605V476.42649072408676Q328.7033631801605 474.34167951345444 327.54517537355423 473.41190269589424Q326.38698756694794 472.48212587833405 324.8105775117874 472.48212587833405Q323.53252601623535 472.48212587833405 322.6014485359192 473.0248521864414Q321.670371055603 473.5675784945488 321.16809383034706 474.5196222960949Q320.6658166050911 475.471666097641 320.6658166050911 476.71557533741V490.0H316.6446724534035V476.15262109041214Q316.6446724534035 474.49382930994034 315.5777745246887 473.4879775941372Q314.51087659597397 472.48212587833405 312.8583916425705 472.48212587833405Q311.7291502356529 472.48212587833405 310.7540976703167 473.00963720679283Q309.77904510498047 473.5371485352516 309.19308549165726 474.56526723504066Q308.60712587833405 475.5933859348297 308.60712587833405 477.1111648082733V490.0ZM344.08112102746964 490.4557042121887Q342.1109844446182 490.4557042121887 340.51936280727386 489.72854539752007Q338.9277411699295 489.0013865828514 337.99815064668655 487.58937418460846Q337.0685601234436 486.1773617863655 337.0685601234436 484.1330064535141Q337.0685601234436 482.36511528491974 337.75026029348373 481.2351354956627Q338.43196046352386 480.10515570640564 339.5851353108883 479.44164103269577Q340.7383101582527 478.7781263589859 342.1586718261242 478.44432827830315Q343.57903349399567 478.1105301976204 345.05635648965836 477.93834215402603Q346.8917869925499 477.7171694636345 348.03902420401573 477.57726752758026Q349.18626141548157 477.43736559152603 349.7354808449745 477.1135866343975Q350.28470027446747 476.789807677269 350.28470027446747 476.05912286043167V475.9544741511345Q350.28470027446747 474.7925740480423 349.8373453319073 473.9878533780575Q349.3899903893471 473.18313270807266 348.5052996277809 472.7524763047695Q347.62060886621475 472.32181990146637 346.30359184741974 472.32181990146637Q344.95948457717896 472.32181990146637 343.9886997938156 472.73893117904663Q343.01791501045227 473.1560424566269 342.4093192219734 473.80007776618004Q341.80072343349457 474.4441130757332 341.5034758448601 475.15104734897614L337.6623101234436 474.16356402635574Q338.36998957395554 472.297703564167 339.68774497509 471.16568472981453Q341.0055003762245 470.03366589546204 342.71011659502983 469.514879822731Q344.41473281383514 468.99609375 346.24755519628525 468.99609375Q347.4970192909241 468.99609375 348.9071721434593 469.29500779509544Q350.31732499599457 469.5939218401909 351.5578911304474 470.369506418705Q352.7984572649002 471.1450909972191 353.58220821619034 472.56155747175217Q354.36595916748047 473.97802394628525 354.36595916748047 476.2283437848091V490.0H350.4171776175499V487.15964925289154H350.20788019895554Q349.8052455186844 487.9634350538254 349.00758025050163 488.72343546152115Q348.2099149823189 489.4834358692169 346.99012887477875 489.9695700407028Q345.7703427672386 490.4557042121887 344.08112102746964 490.4557042121887ZM344.9869474172592 487.1882366538048Q346.6620719432831 487.1882366538048 347.8471637070179 486.531397998333Q349.0322554707527 485.8745593428612 349.6651572883129 484.80506348609924Q350.2980591058731 483.7355676293373 350.2980591058731 482.5306239128113V479.8650489449501Q350.07725900411606 480.08288192749023 349.45419001579285 480.2626774609089Q348.83112102746964 480.44247299432755 348.0399454832077 480.5808913707733Q347.24876993894577 480.7193097472191 346.4998996257782 480.81635096669197Q345.7510293126106 480.91339218616486 345.27528685331345 480.97239595651627Q344.1293469071388 481.11749374866486 343.1711791753769 481.4692910313606Q342.21301144361496 481.8210883140564 341.64894622564316 482.47013318538666Q341.08488100767136 483.1191780567169 341.08488100767136 484.1897882819176Q341.08488100767136 485.1757880449295 341.5914260149002 485.84097597002983Q342.09797102212906 486.50616389513016 342.9759823679924 486.84720027446747Q343.85399371385574 487.1882366538048 344.9869474172592 487.1882366538048ZM370.1504297852516 490.4119154214859Q368.2771447300911 490.4119154214859 367.08277902007103 489.7697362601757Q365.88841331005096 489.1275570988655 365.2122815847397 488.27144354581833Q364.5361498594284 487.41532999277115 364.17025196552277 486.7533022761345H363.83255529403687V490.0H359.85594511032104V462.353515625H363.93720400333405V472.63392347097397H364.17025196552277Q364.532810151577 471.9871107339859 365.1903871893883 471.1345231831074Q365.84796422719955 470.28193563222885 367.03045466542244 469.6390146911144Q368.2129451036453 468.99609375 370.14857363700867 468.99609375Q372.6493783593178 468.99609375 374.6020746231079 470.2581850886345Q376.55477088689804 471.520276427269 377.68567875027657 473.91308933496475Q378.8165866136551 476.3059022426605 378.8165866136551 479.6769143342972Q378.8165866136551 483.02974432706833 377.7033053636551 485.4318345785141Q376.5900241136551 487.83392482995987 374.63565799593925 489.1229201257229Q372.6812918782234 490.4119154214859 370.1504297852516 490.4119154214859ZM369.245348572731 486.93367367982864Q371.02994507551193 486.93367367982864 372.2311798930168 485.9688265323639Q373.4324147105217 485.00397938489914 374.04101049900055 483.3522362112999Q374.6496062874794 481.70049303770065 374.6496062874794 479.646484375Q374.6496062874794 477.6043509840965 374.04861798882484 475.98303776979446Q373.4476296901703 474.3617245554924 372.2463948726654 473.41803002357483Q371.0451600551605 472.47433549165726 369.245348572731 472.47433549165726Q367.4945217370987 472.47433549165726 366.295884847641 473.37238508462906Q365.0972479581833 474.27043467760086 364.485312461853 475.87653291225433Q363.87337696552277 477.4826311469078 363.87337696552277 479.646484375Q363.87337696552277 481.8036581873894 364.4929199516773 483.4461240172386Q365.1124629378319 485.08858984708786 366.3187073171139 486.01113176345825Q367.5249516963959 486.93367367982864 369.245348572731 486.93367367982864ZM387.42743837833405 462.353515625V490.0H383.34617948532104V462.353515625ZM401.8615220785141 490.43195366859436Q398.79888767004013 490.43195366859436 396.5786353945732 489.1077051460743Q394.3583831191063 487.78345662355423 393.16179206967354 485.38990193605423Q391.9652010202408 482.99634724855423 391.9652010202408 479.77488362789154Q391.9652010202408 476.58013767004013 393.14063945412636 474.15448316931725Q394.31607788801193 471.72882866859436 396.46712097525597 470.3624612092972Q398.6181640625 468.99609375 401.5086104273796 468.99609375Q403.2868865132332 468.99609375 404.94530230760574 469.5768541097641Q406.6037181019783 470.1576144695282 407.9201728403568 471.4030038714409Q409.23662757873535 472.6483932733536 410.0059053301811 474.63040512800217Q410.7751830816269 476.61241698265076 410.7751830816269 479.41825968027115V480.8666362762451H394.2355523109436V477.81922364234924H408.6714649796486L406.76554161310196 478.82488906383514Q406.76554161310196 476.92414116859436 406.1738306581974 475.46796399354935Q405.58211970329285 474.01178681850433 404.41725248098373 473.19203746318817Q403.2523852586746 472.372288107872 401.52196925878525 472.372288107872Q399.7915532588959 472.372288107872 398.5658261179924 473.20725244283676Q397.3400989770889 474.0422167778015 396.6951355934143 475.407104074955Q396.0501722097397 476.77199137210846 396.0501722097397 478.38365465402603V480.4547208547592Q396.0501722097397 482.5885167121887 396.7828994691372 484.06658828258514Q397.5156267285347 485.54465985298157 398.83839508891106 486.30020958185196Q400.1611634492874 487.05575931072235 401.90345472097397 487.05575931072235Q403.0445713996887 487.05575931072235 403.9780605137348 486.7282680571079Q404.9115496277809 486.4007768034935 405.58508682250977 485.74319636821747Q406.2586240172386 485.08561593294144 406.6182150840759 484.1148311495781L410.4478781223297 485.01881498098373Q409.9587768316269 486.6308440566063 408.7783288359642 487.8500712811947Q407.5978808403015 489.0692985057831 405.84335190057755 489.7506260871887Q404.0888229608536 490.43195366859436 401.8615220785141 490.43195366859436ZM429.9195628762245 490.0 423.6862988471985 469.255859375H427.99503725767136L430.27801579236984 477.84966719150543Q430.7775087952614 479.77193009853363 431.35289040207863 482.1441458761692Q431.9282720088959 484.5163616538048 432.46339082717896 487.47175282239914H431.8681572675705Q432.4014199376106 484.6228665113449 432.9766152501106 482.24137338995934Q433.5518105626106 479.85988026857376 434.076537668705 477.84966719150543L436.3658230304718 469.255859375H440.44931745529175L442.69481402635574 477.84966719150543Q443.2009864449501 479.8175750374794 443.7702441215515 482.189790815115Q444.3395017981529 484.56200659275055 444.87276446819305 487.47175282239914H444.2689953446388Q444.8159894347191 484.59243655204773 445.3754142820835 482.22022077441216Q445.93483912944794 479.8480049967766 446.44954711198807 477.84966719150543L448.73252564668655 469.255859375H453.0679817199707L446.82135885953903 490.0H442.7219178676605L440.1617367863655 481.07220780849457Q439.7769116163254 479.7236498594284 439.40563157200813 478.24762412905693Q439.0343515276909 476.77159839868546 438.68162617087364 475.2280333340168Q438.3289008140564 473.68446826934814 437.95929062366486 472.17040169239044H438.7816311120987Q438.43057560920715 473.66925328969955 438.0685729086399 475.2204258441925Q437.70657020807266 476.77159839868546 437.3369600176811 478.2628391087055Q436.9673498272896 479.7540798187256 436.57918494939804 481.07220780849457L434.019003868103 490.0ZM462.68268352746964 490.4557042121887Q460.7125469446182 490.4557042121887 459.12092530727386 489.72854539752007Q457.5293036699295 489.0013865828514 456.59971314668655 487.58937418460846Q455.6701226234436 486.1773617863655 455.6701226234436 484.1330064535141Q455.6701226234436 482.36511528491974 456.35182279348373 481.2351354956627Q457.03352296352386 480.10515570640564 458.1866978108883 479.44164103269577Q459.3398726582527 478.7781263589859 460.7602343261242 478.44432827830315Q462.18059599399567 478.1105301976204 463.65791898965836 477.93834215402603Q465.4933494925499 477.7171694636345 466.64058670401573 477.57726752758026Q467.78782391548157 477.43736559152603 468.3370433449745 477.1135866343975Q468.88626277446747 476.789807677269 468.88626277446747 476.05912286043167V475.9544741511345Q468.88626277446747 474.7925740480423 468.4389078319073 473.9878533780575Q467.9915528893471 473.18313270807266 467.1068621277809 472.7524763047695Q466.22217136621475 472.32181990146637 464.90515434741974 472.32181990146637Q463.56104707717896 472.32181990146637 462.5902622938156 472.73893117904663Q461.61947751045227 473.1560424566269 461.0108817219734 473.80007776618004Q460.40228593349457 474.4441130757332 460.1050383448601 475.15104734897614L456.2638726234436 474.16356402635574Q456.97155207395554 472.297703564167 458.28930747509 471.16568472981453Q459.6070628762245 470.03366589546204 461.31167909502983 469.514879822731Q463.01629531383514 468.99609375 464.84911769628525 468.99609375Q466.0985817909241 468.99609375 467.5087346434593 469.29500779509544Q468.91888749599457 469.5939218401909 470.1594536304474 470.369506418705Q471.4000197649002 471.1450909972191 472.18377071619034 472.56155747175217Q472.96752166748047 473.97802394628525 472.96752166748047 476.2283437848091V490.0H469.0187401175499V487.15964925289154H468.80944269895554Q468.4068080186844 487.9634350538254 467.60914275050163 488.72343546152115Q466.8114774823189 489.4834358692169 465.59169137477875 489.9695700407028Q464.3719052672386 490.4557042121887 462.68268352746964 490.4557042121887ZM463.5885099172592 487.1882366538048Q465.2636344432831 487.1882366538048 466.4487262070179 486.531397998333Q467.6338179707527 485.8745593428612 468.2667197883129 484.80506348609924Q468.8996216058731 483.7355676293373 468.8996216058731 482.5306239128113V479.8650489449501Q468.67882150411606 480.08288192749023 468.05575251579285 480.2626774609089Q467.43268352746964 480.44247299432755 466.6415079832077 480.5808913707733Q465.85033243894577 480.7193097472191 465.1014621257782 480.81635096669197Q464.3525918126106 480.91339218616486 463.87684935331345 480.97239595651627Q462.7309094071388 481.11749374866486 461.7727416753769 481.4692910313606Q460.81457394361496 481.8210883140564 460.25050872564316 482.47013318538666Q459.68644350767136 483.1191780567169 459.68644350767136 484.1897882819176Q459.68644350767136 485.1757880449295 460.1929885149002 485.84097597002983Q460.69953352212906 486.50616389513016 461.5775448679924 486.84720027446747Q462.45555621385574 487.1882366538048 463.5885099172592 487.1882366538048ZM482.53876650333405 462.353515625V490.0H478.45750761032104V462.353515625ZM491.80535274744034 483.00189530849457V478.01257449388504H492.49447071552277L500.6689521074295 469.255859375H505.5714405179024L496.1890686750412 479.29208236932755H495.50404238700867ZM488.03172636032104 490.0V462.353515625H492.11298525333405V490.0ZM501.0931153893471 490.0 493.7261388897896 480.20125526189804 496.5486597418785 477.31379640102386 506.1373618841171 490.0ZM509.27684354782104 490.0V469.255859375H513.358102440834V490.0ZM511.3293482661247 466.0907914042473Q510.279528260231 466.0907914042473 509.5228709578514 465.3777450383062Q508.7662136554718 464.66469867236515 508.7662136554718 463.66643376004765Q508.7662136554718 462.6477960944176 509.5228709578514 461.9442049264908Q510.279528260231 461.240613758564 511.3293482661247 461.240613758564Q512.3934290494237 461.240613758564 513.150563452925 461.9438471006496Q513.9076978564262 462.6470804427351 513.9076978564262 463.6662591993809Q513.9076978564262 464.6650543808937 513.150563452925 465.3779228925705Q512.3934290494237 466.0907914042473 511.3293482661247 466.0907914042473ZM527.7921861410141 490.43195366859436Q524.7295517325401 490.43195366859436 522.5092994570732 489.1077051460743Q520.2890471816063 487.78345662355423 519.0924561321735 485.38990193605423Q517.8958650827408 482.99634724855423 517.8958650827408 479.77488362789154Q517.8958650827408 476.58013767004013 519.0713035166264 474.15448316931725Q520.2467419505119 471.72882866859436 522.397785037756 470.3624612092972Q524.548828125 468.99609375 527.4392744898796 468.99609375Q529.2175505757332 468.99609375 530.8759663701057 469.5768541097641Q532.5343821644783 470.1576144695282 533.8508369028568 471.4030038714409Q535.1672916412354 472.6483932733536 535.9365693926811 474.63040512800217Q536.7058471441269 476.61241698265076 536.7058471441269 479.41825968027115V480.8666362762451H520.1662163734436V477.81922364234924H534.6021290421486L532.696205675602 478.82488906383514Q532.696205675602 476.92414116859436 532.1044947206974 475.46796399354935Q531.5127837657928 474.01178681850433 530.3479165434837 473.19203746318817Q529.1830493211746 472.372288107872 527.4526333212852 472.372288107872Q525.7222173213959 472.372288107872 524.4964901804924 473.20725244283676Q523.2707630395889 474.0422167778015 522.6257996559143 475.407104074955Q521.9808362722397 476.77199137210846 521.9808362722397 478.38365465402603V480.4547208547592Q521.9808362722397 482.5885167121887 522.7135635316372 484.06658828258514Q523.4462907910347 485.54465985298157 524.769059151411 486.30020958185196Q526.0918275117874 487.05575931072235 527.834118783474 487.05575931072235Q528.9752354621887 487.05575931072235 529.9087245762348 486.7282680571079Q530.8422136902809 486.4007768034935 531.5157508850098 485.74319636821747Q532.1892880797386 485.08561593294144 532.5488791465759 484.1148311495781L536.3785421848297 485.01881498098373Q535.8894408941269 486.6308440566063 534.7089928984642 487.8500712811947Q533.5285449028015 489.0692985057831 531.7740159630775 489.7506260871887Q530.0194870233536 490.43195366859436 527.7921861410141 490.43195366859436ZM553.3579441905022 476.57568699121475V480.1099653840065H541.0762314200401V476.57568699121475ZM567.6224004030228 469.255859375V472.57416093349457H556.3701171875V469.255859375ZM559.4004722833633 464.3203125H563.4817311763763V484.3887007832527Q563.4817311763763 485.6467140316963 564.0059027969837 486.23007571697235Q564.5300744175911 486.8134374022484 565.7439262866974 486.8134374022484Q566.0626956820488 486.8134374022484 566.5811125636101 486.7375487983227Q567.0995294451714 486.661660194397 567.4709957838058 486.587441444397L568.1942560076714 489.8586145043373Q567.5377967357635 490.07421875 566.7939427793026 490.1720017492771Q566.0500888228416 490.26978474855423 565.3372203111649 490.26978474855423Q562.5031831860542 490.26978474855423 560.9518277347088 488.81862393021584Q559.4004722833633 487.36746311187744 559.4004722833633 484.72527968883514ZM577.4805350899696 490.4557042121887Q575.5103985071182 490.4557042121887 573.9187768697739 489.72854539752007Q572.3271552324295 489.0013865828514 571.3975647091866 487.58937418460846Q570.4679741859436 486.1773617863655 570.4679741859436 484.1330064535141Q570.4679741859436 482.36511528491974 571.1496743559837 481.2351354956627Q571.8313745260239 480.10515570640564 572.9845493733883 479.44164103269577Q574.1377242207527 478.7781263589859 575.5580858886242 478.44432827830315Q576.9784475564957 478.1105301976204 578.4557705521584 477.93834215402603Q580.2912010550499 477.7171694636345 581.4384382665157 477.57726752758026Q582.5856754779816 477.43736559152603 583.1348949074745 477.1135866343975Q583.6841143369675 476.789807677269 583.6841143369675 476.05912286043167V475.9544741511345Q583.6841143369675 474.7925740480423 583.2367593944073 473.9878533780575Q582.7894044518471 473.18313270807266 581.9047136902809 472.7524763047695Q581.0200229287148 472.32181990146637 579.7030059099197 472.32181990146637Q578.358898639679 472.32181990146637 577.3881138563156 472.73893117904663Q576.4173290729523 473.1560424566269 575.8087332844734 473.80007776618004Q575.2001374959946 474.4441130757332 574.9028899073601 475.15104734897614L571.0617241859436 474.16356402635574Q571.7694036364555 472.297703564167 573.08715903759 471.16568472981453Q574.4049144387245 470.03366589546204 576.1095306575298 469.514879822731Q577.8141468763351 468.99609375 579.6469692587852 468.99609375Q580.8964333534241 468.99609375 582.3065862059593 469.29500779509544Q583.7167390584946 469.5939218401909 584.9573051929474 470.369506418705Q586.1978713274002 471.1450909972191 586.9816222786903 472.56155747175217Q587.7653732299805 473.97802394628525 587.7653732299805 476.2283437848091V490.0H583.8165916800499V487.15964925289154H583.6072942614555Q583.2046595811844 487.9634350538254 582.4069943130016 488.72343546152115Q581.6093290448189 489.4834358692169 580.3895429372787 489.9695700407028Q579.1697568297386 490.4557042121887 577.4805350899696 490.4557042121887ZM578.3863614797592 487.1882366538048Q580.0614860057831 487.1882366538048 581.2465777695179 486.531397998333Q582.4316695332527 485.8745593428612 583.0645713508129 484.80506348609924Q583.6974731683731 483.7355676293373 583.6974731683731 482.5306239128113V479.8650489449501Q583.4766730666161 480.08288192749023 582.8536040782928 480.2626774609089Q582.2305350899696 480.44247299432755 581.4393595457077 480.5808913707733Q580.6481840014458 480.7193097472191 579.8993136882782 480.81635096669197Q579.1504433751106 480.91339218616486 578.6747009158134 480.97239595651627Q577.5287609696388 481.11749374866486 576.5705932378769 481.4692910313606Q575.612425506115 481.8210883140564 575.0483602881432 482.47013318538666Q574.4842950701714 483.1191780567169 574.4842950701714 484.1897882819176Q574.4842950701714 485.1757880449295 574.9908400774002 485.84097597002983Q575.4973850846291 486.50616389513016 576.3753964304924 486.84720027446747Q577.2534077763557 487.1882366538048 578.3863614797592 487.1882366538048ZM597.336618065834 462.353515625V490.0H593.255359172821V462.353515625ZM606.6032043099403 483.00189530849457V478.01257449388504H607.2923222780228L615.4668036699295 469.255859375H620.3692920804024L610.9869202375412 479.29208236932755H610.3018939495087ZM602.829577922821 490.0V462.353515625H606.910836815834V490.0ZM615.8909669518471 490.0 608.5239904522896 480.20125526189804 611.3465113043785 477.31379640102386 620.9352134466171 490.0ZM624.074695110321 490.0V469.255859375H628.155954003334V490.0ZM626.1271998286247 466.0907914042473Q625.077379822731 466.0907914042473 624.3207225203514 465.3777450383062Q623.5640652179718 464.66469867236515 623.5640652179718 463.66643376004765Q623.5640652179718 462.6477960944176 624.3207225203514 461.9442049264908Q625.077379822731 461.240613758564 626.1271998286247 461.240613758564Q627.1912806119237 461.240613758564 627.948415015425 461.9438471006496Q628.7055494189262 462.6470804427351 628.7055494189262 463.6662591993809Q628.7055494189262 464.6650543808937 627.948415015425 465.3779228925705Q627.1912806119237 466.0907914042473 626.1271998286247 466.0907914042473ZM642.5900377035141 490.43195366859436Q639.5274032950401 490.43195366859436 637.3071510195732 489.1077051460743Q635.0868987441063 487.78345662355423 633.8903076946735 485.38990193605423Q632.6937166452408 482.99634724855423 632.6937166452408 479.77488362789154Q632.6937166452408 476.58013767004013 633.8691550791264 474.15448316931725Q635.0445935130119 471.72882866859436 637.195636600256 470.3624612092972Q639.3466796875 468.99609375 642.2371260523796 468.99609375Q644.0154021382332 468.99609375 645.6738179326057 469.5768541097641Q647.3322337269783 470.1576144695282 648.6486884653568 471.4030038714409Q649.9651432037354 472.6483932733536 650.7344209551811 474.63040512800217Q651.5036987066269 476.61241698265076 651.5036987066269 479.41825968027115V480.8666362762451H634.9640679359436V477.81922364234924H649.3999806046486L647.494057238102 478.82488906383514Q647.494057238102 476.92414116859436 646.9023462831974 475.46796399354935Q646.3106353282928 474.01178681850433 645.1457681059837 473.19203746318817Q643.9809008836746 472.372288107872 642.2504848837852 472.372288107872Q640.5200688838959 472.372288107872 639.2943417429924 473.20725244283676Q638.0686146020889 474.0422167778015 637.4236512184143 475.407104074955Q636.7786878347397 476.77199137210846 636.7786878347397 478.38365465402603V480.4547208547592Q636.7786878347397 482.5885167121887 637.5114150941372 484.06658828258514Q638.2441423535347 485.54465985298157 639.566910713911 486.30020958185196Q640.8896790742874 487.05575931072235 642.631970345974 487.05575931072235Q643.7730870246887 487.05575931072235 644.7065761387348 486.7282680571079Q645.6400652527809 486.4007768034935 646.3136024475098 485.74319636821747Q646.9871396422386 485.08561593294144 647.3467307090759 484.1148311495781L651.1763937473297 485.01881498098373Q650.6872924566269 486.6308440566063 649.5068444609642 487.8500712811947Q648.3263964653015 489.0692985057831 646.5718675255775 489.7506260871887Q644.8173385858536 490.43195366859436 642.5900377035141 490.43195366859436ZM676.3807045817375 469.255859375V472.57416093349457H663.7275390625V469.255859375ZM667.6693025827408 490.0V466.88195675611496Q667.6693025827408 464.94522404670715 668.5252298414707 463.6523369550705Q669.3811571002007 462.35944986343384 670.7924243211746 461.7070686817169Q672.2036915421486 461.0546875 673.8435492515564 461.0546875Q675.0744654536247 461.0546875 675.9556234180927 461.2545212805271Q676.8367813825607 461.45435506105423 677.2546310424805 461.6180075407028L676.3001790046692 464.92295026779175Q676.0136957168579 464.82683712244034 675.5761770009995 464.72218841314316Q675.138658285141 464.617539703846 674.4836757779121 464.617539703846Q673.0338088274002 464.617539703846 672.3888454437256 465.3443293273449Q671.743882060051 466.0711189508438 671.743882060051 467.437120616436V490.0ZM689.2409727573395 490.43195366859436Q686.3204690217972 490.43195366859436 684.1441918313503 489.09434631466866Q681.9679146409035 487.75673896074295 680.7653859555721 485.34629943966866Q679.5628572702408 482.93585991859436 679.5628572702408 479.74445366859436Q679.5628572702408 476.5074024796486 680.7653859555721 474.08935546875Q681.9679146409035 471.6713084578514 684.1441918313503 470.3337011039257Q686.3204690217972 468.99609375 689.2409727573395 468.99609375Q692.1766914725304 468.99609375 694.3572364449501 470.3337011039257Q696.5377814173698 471.6713084578514 697.7403101027012 474.08935546875Q698.9428387880325 476.5074024796486 698.9428387880325 479.74445366859436Q698.9428387880325 482.93585991859436 697.7403101027012 485.34629943966866Q696.5377814173698 487.75673896074295 694.3572364449501 489.09434631466866Q692.1766914725304 490.43195366859436 689.2409727573395 490.43195366859436ZM689.2409727573395 486.9804295897484Q691.1339302659035 486.9804295897484 692.3698628246784 485.98775041103363Q693.6057953834534 484.9950712323189 694.2051138281822 483.348523914814Q694.8044322729111 481.7019765973091 694.8044322729111 479.73777425289154Q694.8044322729111 477.75501722097397 694.2051138281822 476.0982644855976Q693.6057953834534 474.44151175022125 692.3698628246784 473.4445647895336Q691.1339302659035 472.447617828846 689.2409727573395 472.447617828846Q687.3598905205727 472.447617828846 686.1375030875206 473.4445647895336Q684.9151156544685 474.44151175022125 684.3157972097397 476.0906569957733Q683.7164787650108 477.7398022413254 683.7164787650108 479.73777425289154Q683.7164787650108 481.7019765973091 684.3157972097397 483.348523914814Q684.9151156544685 484.9950712323189 686.1375030875206 485.98775041103363Q687.3598905205727 486.9804295897484 689.2409727573395 486.9804295897484ZM703.470202922821 490.0V469.255859375H707.4200954437256V472.5875333547592H707.6427516937256Q708.2146072983742 470.8968348503113 709.6462887525558 469.93124932050705Q711.0779702067375 468.9656637907028 712.896702170372 468.9656637907028Q713.2878341674805 468.9656637907028 713.7930785119534 468.99423760175705Q714.2983228564262 469.0228114128113 714.6219155192375 469.06474405527115V472.96083545684814Q714.4000044465065 472.89366871118546 713.7678478062153 472.81778010725975Q713.1356911659241 472.74189150333405 712.4844209551811 472.74189150333405Q711.0701798200607 472.74189150333405 709.947062343359 473.3400955796242Q708.8239448666573 473.9382996559143 708.1877033412457 474.9870120882988Q707.551461815834 476.0357245206833 707.551461815834 477.40580427646637V490.0ZM728.0258448719978 497.45787340402603 729.019628226757 494.12918013334274 729.4823776483536 494.25201094150543Q730.5396222472191 494.52179569005966 731.3846023082733 494.39785051345825Q732.2295823693275 494.27390533685684 732.8507952094078 493.61224341392517Q733.4720080494881 492.9505814909935 733.8427360057831 491.61649334430695L734.2928785681725 490.09462958574295L726.4134432077408 469.255859375H730.820150911808L734.9255737066269 481.0466418862343Q735.6106135845184 483.0130661725998 736.0646479427814 484.95407006144524Q736.5186823010445 486.8950739502907 737.0467491149902 488.8232710957527H735.7987617850304Q736.3268285989761 486.8950739502907 736.8201976716518 484.94312286376953Q737.3135667443275 482.9911717772484 737.9934107661247 481.0466418862343L742.1793591380119 469.255859375H746.5508136153221L737.5406532883644 492.88155180215836Q736.9097939133644 494.5395984053612 735.9933793246746 495.65992826223373Q735.0769647359848 496.7802581191063 733.8094980418682 497.34227749705315Q732.5420313477516 497.904296875 730.8691491484642 497.904296875Q729.9083902835846 497.904296875 729.1521055698395 497.76439493894577Q728.3958208560944 497.62449300289154 728.0258448719978 497.45787340402603ZM758.8767149448395 490.43195366859436Q755.9562112092972 490.43195366859436 753.7799340188503 489.09434631466866Q751.6036568284035 487.75673896074295 750.4011281430721 485.34629943966866Q749.1985994577408 482.93585991859436 749.1985994577408 479.74445366859436Q749.1985994577408 476.5074024796486 750.4011281430721 474.08935546875Q751.6036568284035 471.6713084578514 753.7799340188503 470.3337011039257Q755.9562112092972 468.99609375 758.8767149448395 468.99609375Q761.8124336600304 468.99609375 763.9929786324501 470.3337011039257Q766.1735236048698 471.6713084578514 767.3760522902012 474.08935546875Q768.5785809755325 476.5074024796486 768.5785809755325 479.74445366859436Q768.5785809755325 482.93585991859436 767.3760522902012 485.34629943966866Q766.1735236048698 487.75673896074295 763.9929786324501 489.09434631466866Q761.8124336600304 490.43195366859436 758.8767149448395 490.43195366859436ZM758.8767149448395 486.9804295897484Q760.7696724534035 486.9804295897484 762.0056050121784 485.98775041103363Q763.2415375709534 484.9950712323189 763.8408560156822 483.348523914814Q764.4401744604111 481.7019765973091 764.4401744604111 479.73777425289154Q764.4401744604111 477.75501722097397 763.8408560156822 476.0982644855976Q763.2415375709534 474.44151175022125 762.0056050121784 473.4445647895336Q760.7696724534035 472.447617828846 758.8767149448395 472.447617828846Q756.9956327080727 472.447617828846 755.7732452750206 473.4445647895336Q754.5508578419685 474.44151175022125 753.9515393972397 476.0906569957733Q753.3522209525108 477.7398022413254 753.3522209525108 479.73777425289154Q753.3522209525108 481.7019765973091 753.9515393972397 483.348523914814Q754.5508578419685 484.9950712323189 755.7732452750206 485.98775041103363Q756.9956327080727 486.9804295897484 758.8767149448395 486.9804295897484ZM780.1749084591866 490.259765625Q778.0615302324295 490.259765625 776.466755181551 489.3719248473644Q774.8719801306725 488.48408406972885 773.9889626204967 486.73660373687744Q773.105945110321 484.98912340402603 773.105945110321 482.4363669157028V469.255859375H777.187204003334V481.92760676145554Q777.187204003334 484.1675348877907 778.3620903491974 485.4368645250797Q779.5369766950607 486.7061941623688 781.5709471106529 486.7061941623688Q782.9551308751106 486.7061941623688 784.0415115654469 486.1018661558628Q785.1278922557831 485.49753814935684 785.7576406598091 484.3369387090206Q786.3873890638351 483.1763392686844 786.3873890638351 481.5472322702408V469.255859375H790.4838629364967V490.0H786.5773866176605L786.5506689548492 484.92158406972885H786.9559049606323Q786.0378171205521 487.73447877168655 784.2992415428162 488.9971221983433Q782.5606659650803 490.259765625 780.1749084591866 490.259765625ZM795.965320110321 490.0V469.255859375H799.9152126312256V472.5875333547592H800.1378688812256Q800.7097244858742 470.8968348503113 802.1414059400558 469.93124932050705Q803.5730873942375 468.9656637907028 805.391819357872 468.9656637907028Q805.7829513549805 468.9656637907028 806.2881956994534 468.99423760175705Q806.7934400439262 469.0228114128113 807.1170327067375 469.06474405527115V472.96083545684814Q806.8951216340065 472.89366871118546 806.2629649937153 472.81778010725975Q805.6308083534241 472.74189150333405 804.9795381426811 472.74189150333405Q803.5652970075607 472.74189150333405 802.442179530859 473.3400955796242Q801.3190620541573 473.9382996559143 800.6828205287457 474.9870120882988Q800.046579003334 476.0357245206833 800.046579003334 477.40580427646637V490.0ZM829.6702519655228 469.255859375V472.57416093349457H818.41796875V469.255859375ZM821.4483238458633 464.3203125H825.5295827388763V484.3887007832527Q825.5295827388763 485.6467140316963 826.0537543594837 486.23007571697235Q826.5779259800911 486.8134374022484 827.7917778491974 486.8134374022484Q828.1105472445488 486.8134374022484 828.6289641261101 486.7375487983227Q829.1473810076714 486.661660194397 829.5188473463058 486.587441444397L830.2421075701714 489.8586145043373Q829.5856482982635 490.07421875 828.8417943418026 490.1720017492771Q828.0979403853416 490.26978474855423 827.3850718736649 490.26978474855423Q824.5510347485542 490.26978474855423 822.9996792972088 488.81862393021584Q821.4483238458633 487.36746311187744 821.4483238458633 484.72527968883514ZM842.4470274448395 490.43195366859436Q839.5265237092972 490.43195366859436 837.3502465188503 489.09434631466866Q835.1739693284035 487.75673896074295 833.9714406430721 485.34629943966866Q832.7689119577408 482.93585991859436 832.7689119577408 479.74445366859436Q832.7689119577408 476.5074024796486 833.9714406430721 474.08935546875Q835.1739693284035 471.6713084578514 837.3502465188503 470.3337011039257Q839.5265237092972 468.99609375 842.4470274448395 468.99609375Q845.3827461600304 468.99609375 847.5632911324501 470.3337011039257Q849.7438361048698 471.6713084578514 850.9463647902012 474.08935546875Q852.1488934755325 476.5074024796486 852.1488934755325 479.74445366859436Q852.1488934755325 482.93585991859436 850.9463647902012 485.34629943966866Q849.7438361048698 487.75673896074295 847.5632911324501 489.09434631466866Q845.3827461600304 490.43195366859436 842.4470274448395 490.43195366859436ZM842.4470274448395 486.9804295897484Q844.3399849534035 486.9804295897484 845.5759175121784 485.98775041103363Q846.8118500709534 484.9950712323189 847.4111685156822 483.348523914814Q848.0104869604111 481.7019765973091 848.0104869604111 479.73777425289154Q848.0104869604111 477.75501722097397 847.4111685156822 476.0982644855976Q846.8118500709534 474.44151175022125 845.5759175121784 473.4445647895336Q844.3399849534035 472.447617828846 842.4470274448395 472.447617828846Q840.5659452080727 472.447617828846 839.3435577750206 473.4445647895336Q838.1211703419685 474.44151175022125 837.5218518972397 476.0906569957733Q836.9225334525108 477.7398022413254 836.9225334525108 479.73777425289154Q836.9225334525108 481.7019765973091 837.5218518972397 483.348523914814Q838.1211703419685 484.9950712323189 839.3435577750206 485.98775041103363Q840.5659452080727 486.9804295897484 842.4470274448395 486.9804295897484ZM865.3991758823395 490.43195366859436Q862.4786721467972 490.43195366859436 860.3023949563503 489.09434631466866Q858.1261177659035 487.75673896074295 856.9235890805721 485.34629943966866Q855.7210603952408 482.93585991859436 855.7210603952408 479.74445366859436Q855.7210603952408 476.5074024796486 856.9235890805721 474.08935546875Q858.1261177659035 471.6713084578514 860.3023949563503 470.3337011039257Q862.4786721467972 468.99609375 865.3991758823395 468.99609375Q868.3348945975304 468.99609375 870.5154395699501 470.3337011039257Q872.6959845423698 471.6713084578514 873.8985132277012 474.08935546875Q875.1010419130325 476.5074024796486 875.1010419130325 479.74445366859436Q875.1010419130325 482.93585991859436 873.8985132277012 485.34629943966866Q872.6959845423698 487.75673896074295 870.5154395699501 489.09434631466866Q868.3348945975304 490.43195366859436 865.3991758823395 490.43195366859436ZM865.3991758823395 486.9804295897484Q867.2921333909035 486.9804295897484 868.5280659496784 485.98775041103363Q869.7639985084534 484.9950712323189 870.3633169531822 483.348523914814Q870.9626353979111 481.7019765973091 870.9626353979111 479.73777425289154Q870.9626353979111 477.75501722097397 870.3633169531822 476.0982644855976Q869.7639985084534 474.44151175022125 868.5280659496784 473.4445647895336Q867.2921333909035 472.447617828846 865.3991758823395 472.447617828846Q863.5180936455727 472.447617828846 862.2957062125206 473.4445647895336Q861.0733187794685 474.44151175022125 860.4740003347397 476.0906569957733Q859.8746818900108 477.7398022413254 859.8746818900108 479.73777425289154Q859.8746818900108 481.7019765973091 860.4740003347397 483.348523914814Q861.0733187794685 484.9950712323189 862.2957062125206 485.98775041103363Q863.5180936455727 486.9804295897484 865.3991758823395 486.9804295897484ZM883.709664940834 462.353515625V490.0H879.628406047821V462.353515625ZM896.6508312821388 490.43195366859436Q894.3934730291367 490.43195366859436 892.6426563858986 489.77864441275597Q890.8918397426605 489.1253351569176 889.7672421038151 487.85563972592354Q888.6426444649696 486.5859442949295 888.274890422821 484.75793838500977L892.1190232634544 483.95377999544144Q892.5509769320488 485.5739788413048 893.7130599319935 486.3467825949192Q894.8751429319382 487.11958634853363 896.680516064167 487.11958634853363Q898.6577114462852 487.11958634853363 899.8253628909588 486.29872262477875Q900.9930143356323 485.47785890102386 900.9930143356323 484.3144752383232Q900.9930143356323 483.32513576745987 900.2732767164707 482.67590460181236Q899.5535390973091 482.02667343616486 898.0702750682831 481.6975123286247L894.5790266990662 480.907823741436Q891.6985994577408 480.25655353069305 890.2888157963753 478.8322966694832Q888.8790321350098 477.4080398082733 888.8790321350098 475.1718307733536Q888.8790321350098 473.32044690847397 889.9093727767467 471.9316295683384Q890.9397134184837 470.5428122282028 892.7480502724648 469.7694529891014Q894.5563871264458 468.99609375 896.9013229608536 468.99609375Q899.1453223824501 468.99609375 900.7408358156681 469.64958930015564Q902.3363492488861 470.3030848503113 903.3301360011101 471.4640500843525Q904.323922753334 472.6250153183937 904.7610722780228 474.16764891147614L901.0987740159035 474.9770031571388Q900.7054132819176 473.8804204463959 899.744464725256 473.049723893404Q898.7835161685944 472.21902734041214 896.9432556033134 472.21902734041214Q895.2480928301811 472.21902734041214 894.1160672008991 472.98070099949837Q892.9840415716171 473.7423746585846 892.9840415716171 474.92431300878525Q892.9840415716171 475.9511344432831 893.740519374609 476.5951697528362Q894.4969971776009 477.2392050623894 896.1984667778015 477.62588638067245L899.5312517285347 478.36807388067245Q902.4150186777115 479.016004383564 903.8079175055027 480.4118737280369Q905.2008163332939 481.80774307250977 905.2008163332939 483.97158950567245Q905.2008163332939 485.8634224534035 904.1175958514214 487.319592833519Q903.0343753695488 488.7757632136345 901.1063611209393 489.6038584411144Q899.1783468723297 490.43195366859436 896.6508312821388 490.43195366859436ZM912.6880155205727 490.2779477238655Q911.5420823693275 490.2779477238655 910.744047909975 489.4832529723644Q909.9460134506226 488.68855822086334 909.9460134506226 487.54596477746964Q909.9460134506226 486.4033713340759 910.744047909975 485.60867658257484Q911.5420823693275 484.81398183107376 912.6880155205727 484.81398183107376Q913.8339486718178 484.81398183107376 914.6319831311703 485.60867658257484Q915.4300175905228 486.4033713340759 915.4300175905228 487.54596477746964Q915.4300175905228 488.68855822086334 914.6319831311703 489.4832529723644Q913.8339486718178 490.2779477238655 912.6880155205727 490.2779477238655Z"/>
<path fill="#F25F5C" d="M111.17688941955566 530.6768207550049V526.71875H130.188081741333V530.6768207550049H123.07682418823242V550.0H118.30252265930176V530.6768207550049ZM138.23783206939697 550.338752746582Q136.57314491271973 550.338752746582 135.2553310394287 549.7517199516296Q133.9375171661377 549.1646871566772 133.18282794952393 548.0037479400635Q132.42813873291016 546.8428087234497 132.42813873291016 545.1156215667725Q132.42813873291016 543.6493701934814 132.96282863616943 542.6696844100952Q133.4975185394287 541.689998626709 134.42642736434937 541.0918760299683Q135.35533618927002 540.4937534332275 136.5373682975769 540.1817240715027Q137.7194004058838 539.8696947097778 139.014084815979 539.7471933364868Q140.52596187591553 539.5946912765503 141.45549535751343 539.4600048065186Q142.38502883911133 539.3253183364868 142.8194055557251 539.0386004447937Q143.25378227233887 538.7518825531006 143.25378227233887 538.1871919631958V538.1103162765503Q143.25378227233887 537.3624897003174 142.93612241744995 536.8451361656189Q142.61846256256104 536.3277826309204 142.00845432281494 536.0523085594177Q141.39844608306885 535.776834487915 140.50874519348145 535.776834487915Q139.61310577392578 535.776834487915 138.94184684753418 536.0493392944336Q138.27058792114258 536.3218441009521 137.84245777130127 536.7770056724548Q137.41432762145996 537.2321672439575 137.22588634490967 537.7993564605713L132.92813873291016 537.0859117507935Q133.3722105026245 535.5596590042114 134.4200267791748 534.4966969490051Q135.4678430557251 533.4337348937988 137.0242419242859 532.8731174468994Q138.58064079284668 532.3125 140.52342891693115 532.3125Q141.92996978759766 532.3125 143.2580862045288 532.6457762718201Q144.58620262145996 532.9790525436401 145.64213943481445 533.6884241104126Q146.69807624816895 534.3977956771851 147.31870365142822 535.5231122970581Q147.9393310546875 536.6484289169312 147.9393310546875 538.2396974563599V550.0H143.49471187591553V547.5743770599365H143.3409605026245Q142.91752815246582 548.3862438201904 142.21487379074097 549.0093698501587Q141.5122194290161 549.632495880127 140.52440452575684 549.9856243133545Q139.53658962249756 550.338752746582 138.23783206939697 550.338752746582ZM139.55748558044434 547.0528478622437Q140.66437911987305 547.0528478622437 141.50204515457153 546.6122159957886Q142.33971118927002 546.1715841293335 142.81362104415894 545.4228248596191Q143.28753089904785 544.6740655899048 143.28753089904785 543.754997253418V541.8646631240845Q143.07347011566162 542.0087280273438 142.6556510925293 542.1348233222961Q142.23783206939697 542.2609186172485 141.72344779968262 542.3606071472168Q141.20906352996826 542.4602956771851 140.70780563354492 542.5335774421692Q140.20654773712158 542.6068592071533 139.81717205047607 542.6621713638306Q138.9534158706665 542.7787342071533 138.29840660095215 543.0581102371216Q137.6433973312378 543.3374862670898 137.28089046478271 543.8053035736084Q136.91838359832764 544.273120880127 136.91838359832764 544.9778203964233Q136.91838359832764 545.6562671661377 137.26057624816895 546.1179919242859Q137.60276889801025 546.5797166824341 138.19590282440186 546.8162822723389Q138.78903675079346 547.0528478622437 139.55748558044434 547.0528478622437ZM156.61931800842285 526.71875V550.0H151.93376922607422V526.71875ZM164.85776615142822 544.88307762146V539.2472276687622H165.56744575500488L171.2812671661377 532.53125H176.69775104522705L169.15116691589355 541.2921686172485H168.04557418823242ZM160.60564422607422 550.0V526.71875H165.29119300842285V550.0ZM171.50908756256104 550.0 166.27277851104736 542.3390264511108 169.40335750579834 539.0131435394287 177.0336971282959 550.0ZM186.74626922607422 550.0V532.53125H191.43181800842285V550.0ZM189.08779430389404 530.25403881073Q188.0293674468994 530.25403881073 187.27406215667725 529.5464085178262Q186.51875686645508 528.8387782249225 186.51875686645508 527.8480958148573Q186.51875686645508 526.8371953964233 187.27406215667725 526.1378269195557Q188.0293674468994 525.438458442688 189.08779430389404 525.438458442688Q190.15099838801794 525.438458442688 190.90750898633684 526.1369229384832Q191.66401958465576 526.8353874342782 191.66401958465576 527.8476548194885Q191.66401958465576 528.8396768569946 190.90750898633684 529.5468578338623Q190.15099838801794 530.25403881073 189.08779430389404 530.25403881073ZM200.10369300842285 539.8856105804443V550.0H195.41814422607422V532.53125H199.84244918823242L199.91713428497314 536.8921823501587H199.63619232177734Q200.32338428497314 534.7065477371216 201.72401237487793 533.5095238685608Q203.12464046478271 532.3125 205.33681869506836 532.3125Q207.15306663513184 532.3125 208.50228452682495 533.1023411750793Q209.85150241851807 533.8921823501587 210.5979084968567 535.3657755851746Q211.3443145751953 536.8393688201904 211.3443145751953 538.8893756866455V550.0H206.65876579284668V539.7059144973755Q206.65876579284668 538.0783987045288 205.81922578811646 537.1529211997986Q204.97968578338623 536.2274436950684 203.49748420715332 536.2274436950684Q202.50903606414795 536.2274436950684 201.74105787277222 536.6604170799255Q200.97307968139648 537.0933904647827 200.53838634490967 537.9082436561584Q200.10369300842285 538.7230968475342 200.10369300842285 539.8856105804443ZM224.02057075500488 532.53125V536.10182762146H213.65625V532.53125ZM216.0618839263916 528.375H220.74743270874023V544.88658618927Q220.74743270874023 545.7209749221802 221.11853075027466 546.116605758667Q221.48962879180908 546.5122365951538 222.33745193481445 546.5122365951538Q222.6115140914917 546.5122365951538 223.09307384490967 546.4455180168152Q223.57463359832764 546.3787994384766 223.82557487487793 546.3162994384766L224.49650859832764 549.8303155899048Q223.71308517456055 550.0625 222.94325017929077 550.1532807350159Q222.173415184021 550.2440614700317 221.46623420715332 550.2440614700317Q218.83781147003174 550.2440614700317 217.44984769821167 548.9685959815979Q216.0618839263916 547.6931304931641 216.0618839263916 545.2993907928467ZM234.8768653869629 550.341251373291Q232.2487506866455 550.341251373291 230.3289122581482 549.2120327949524Q228.40907382965088 548.0828142166138 227.37110662460327 546.0557827949524Q226.33313941955566 544.028751373291 226.33313941955566 541.341251373291Q226.33313941955566 538.6321878433228 227.37110662460327 536.6015625Q228.40907382965088 534.5709371566772 230.3289122581482 533.4417185783386Q232.2487506866455 532.3125 234.8768653869629 532.3125Q237.51216793060303 532.3125 239.42716312408447 533.4417185783386Q241.34215831756592 534.5709371566772 242.38012552261353 536.6015625Q243.41809272766113 538.6321878433228 243.41809272766113 541.341251373291Q243.41809272766113 544.028751373291 242.38012552261353 546.0557827949524Q241.34215831756592 548.0828142166138 239.42716312408447 549.2120327949524Q237.51216793060303 550.341251373291 234.8768653869629 550.341251373291ZM234.8768653869629 546.6528615951538Q236.12782382965088 546.6528615951538 236.96892976760864 545.957540512085Q237.8100357055664 545.2622194290161 238.23035335540771 544.055645942688Q238.65067100524902 542.8490724563599 238.65067100524902 541.3243770599365Q238.65067100524902 539.7840566635132 238.23035335540771 538.5829510688782Q237.8100357055664 537.3818454742432 236.96892976760864 536.6913676261902Q236.12782382965088 536.0008897781372 234.8768653869629 536.0008897781372Q233.6246576309204 536.0008897781372 232.78652095794678 536.6913676261902Q231.94838428497314 537.3818454742432 231.52806663513184 538.5793571472168Q231.10774898529053 539.7768688201904 231.10774898529053 541.3243770599365Q231.10774898529053 542.8490724563599 231.52806663513184 544.055645942688Q231.94838428497314 545.2622194290161 232.78652095794678 545.957540512085Q233.6246576309204 546.6528615951538 234.8768653869629 546.6528615951538ZM262.9424457550049 532.53125V536.10182762146H252.578125V532.53125ZM254.9837589263916 528.375H259.66930770874023V544.88658618927Q259.66930770874023 545.7209749221802 260.04040575027466 546.116605758667Q260.4115037918091 546.5122365951538 261.25932693481445 546.5122365951538Q261.5333890914917 546.5122365951538 262.01494884490967 546.4455180168152Q262.49650859832764 546.3787994384766 262.74744987487793 546.3162994384766L263.41838359832764 549.8303155899048Q262.63496017456055 550.0625 261.86512517929077 550.1532807350159Q261.095290184021 550.2440614700317 260.3881092071533 550.2440614700317Q257.75968647003174 550.2440614700317 256.37172269821167 548.9685959815979Q254.9837589263916 547.6931304931641 254.9837589263916 545.2993907928467ZM270.66619300842285 539.8856105804443V550.0H265.9806442260742V526.71875H270.5818214416504V536.8921823501587H270.19869232177734Q270.88588428497314 534.7065477371216 272.28651237487793 533.5095238685608Q273.6871404647827 532.3125 275.89931869506836 532.3125Q277.71556663513184 532.3125 279.0683784484863 533.1023411750793Q280.4211902618408 533.8921823501587 281.16759634017944 535.3657755851746Q281.91400241851807 536.8393688201904 281.91400241851807 538.8893756866455V550.0H277.2212657928467V539.7059144973755Q277.2212657928467 538.0783987045288 276.38172578811646 537.1529211997986Q275.54218578338623 536.2274436950684 274.0599842071533 536.2274436950684Q273.07153606414795 536.2274436950684 272.3035578727722 536.6604170799255Q271.5355796813965 537.0933904647827 271.10088634490967 537.9082436561584Q270.66619300842285 538.7230968475342 270.66619300842285 539.8856105804443ZM293.80312156677246 550.341251373291Q291.1284399032593 550.341251373291 289.1912565231323 549.2457814216614Q287.25407314300537 548.1503114700317 286.2154812812805 546.1346864700317Q285.17688941955566 544.1190614700317 285.17688941955566 541.3556270599365Q285.17688941955566 538.6596899032593 286.208918094635 536.6254706382751Q287.24094676971436 534.591251373291 289.1282858848572 533.4518756866455Q291.015625 532.3125 293.56780529022217 532.3125Q295.2790422439575 532.3125 296.76559925079346 532.8578090667725Q298.2521562576294 533.4031181335449 299.3748116493225 534.5024900436401Q300.4974670410156 535.6018619537354 301.1284055709839 537.2652997970581Q301.75934410095215 538.9287376403809 301.75934410095215 541.1734323501587V542.4887390136719H287.10001373291016V539.5400123596191H299.47593784332275L297.28597354888916 540.3306407928467Q297.28597354888916 538.966251373291 296.86924982070923 537.9593629837036Q296.4525260925293 536.9524745941162 295.63470363616943 536.3971538543701Q294.81688117980957 535.841833114624 293.60155391693115 535.841833114624Q292.38622665405273 535.841833114624 291.53965282440186 536.4043416976929Q290.693078994751 536.9668502807617 290.2511978149414 537.9306116104126Q289.80931663513184 538.8943729400635 289.80931663513184 540.1221933364868V542.1981105804443Q289.80931663513184 543.713752746582 290.31666707992554 544.7447032928467Q290.82401752471924 545.7756538391113 291.74387311935425 546.2937860488892Q292.66372871398926 546.811918258667 293.8778066635132 546.811918258667Q294.69812774658203 546.811918258667 295.3689160346985 546.5783219337463Q296.03970432281494 546.3447256088257 296.52252197265625 545.8865947723389Q297.00533962249756 545.428463935852 297.25753021240234 544.7572050094604L301.49496841430664 545.5409536361694Q301.07184410095215 546.9884481430054 300.02715969085693 548.0686011314392Q298.9824752807617 549.148754119873 297.40935611724854 549.745002746582Q295.83623695373535 550.341251373291 293.80312156677246 550.341251373291ZM320.35280323028564 550.341251373291Q317.72468852996826 550.341251373291 315.80906867980957 549.2120327949524Q313.8934488296509 548.0828142166138 312.85548162460327 546.0557827949524Q311.81751441955566 544.028751373291 311.81751441955566 541.341251373291Q311.81751441955566 538.6321878433228 312.85548162460327 536.6015625Q313.8934488296509 534.5709371566772 315.80906867980957 533.4417185783386Q317.72468852996826 532.3125 320.35280323028564 532.3125Q321.91372871398926 532.3125 323.2243461608887 532.7165594100952Q324.5349636077881 533.1206188201904 325.54902267456055 533.8728008270264Q326.563081741333 534.6249828338623 327.2180824279785 535.7006006240845Q327.873083114624 536.7762184143066 328.1227750778198 538.1193351745605L323.7659673690796 538.935583114624Q323.6206531524658 538.2552709579468 323.32705545425415 537.7138638496399Q323.0334577560425 537.172456741333 322.6095461845398 536.7879242897034Q322.1856346130371 536.4033918380737 321.6314091682434 536.2021408081055Q321.0771837234497 536.0008897781372 320.4034261703491 536.0008897781372Q319.15121841430664 536.0008897781372 318.30464458465576 536.6744933128357Q317.4580707550049 537.3480968475342 317.0250973701477 538.5456085205078Q316.5921239852905 539.7431201934814 316.5921239852905 541.3243770599365Q316.5921239852905 542.8828210830688 317.0250973701477 544.0851759910583Q317.4580707550049 545.2875308990479 318.30464458465576 545.9701962471008Q319.15121841430664 546.6528615951538 320.4034261703491 546.6528615951538Q321.08437156677246 546.6528615951538 321.6457848548889 546.4437980651855Q322.20719814300537 546.2347345352173 322.64251613616943 545.8387956619263Q323.0778341293335 545.4428567886353 323.37143182754517 544.874418258667Q323.66502952575684 544.3059797286987 323.80190658569336 543.6028547286987L328.15152645111084 544.410665512085Q327.9090223312378 545.7934694290161 327.2504277229309 546.8847122192383Q326.591833114624 547.9759550094604 325.5783987045288 548.7509498596191Q324.5649642944336 549.5259447097778 323.2429404258728 549.9335980415344Q321.920916557312 550.341251373291 320.35280323028564 550.341251373291ZM336.253457069397 550.338752746582Q334.5887699127197 550.338752746582 333.2709560394287 549.7517199516296Q331.9531421661377 549.1646871566772 331.1984529495239 548.0037479400635Q330.44376373291016 546.8428087234497 330.44376373291016 545.1156215667725Q330.44376373291016 543.6493701934814 330.97845363616943 542.6696844100952Q331.5131435394287 541.689998626709 332.44205236434937 541.0918760299683Q333.37096118927 540.4937534332275 334.5529932975769 540.1817240715027Q335.7350254058838 539.8696947097778 337.029709815979 539.7471933364868Q338.5415868759155 539.5946912765503 339.4711203575134 539.4600048065186Q340.4006538391113 539.3253183364868 340.8350305557251 539.0386004447937Q341.26940727233887 538.7518825531006 341.26940727233887 538.1871919631958V538.1103162765503Q341.26940727233887 537.3624897003174 340.95174741744995 536.8451361656189Q340.63408756256104 536.3277826309204 340.02407932281494 536.0523085594177Q339.41407108306885 535.776834487915 338.52437019348145 535.776834487915Q337.6287307739258 535.776834487915 336.9574718475342 536.0493392944336Q336.2862129211426 536.3218441009521 335.85808277130127 536.7770056724548Q335.42995262145996 537.2321672439575 335.24151134490967 537.7993564605713L330.94376373291016 537.0859117507935Q331.3878355026245 535.5596590042114 332.4356517791748 534.4966969490051Q333.4834680557251 533.4337348937988 335.0398669242859 532.8731174468994Q336.5962657928467 532.3125 338.53905391693115 532.3125Q339.94559478759766 532.3125 341.2737112045288 532.6457762718201Q342.60182762145996 532.9790525436401 343.65776443481445 533.6884241104126Q344.71370124816895 534.3977956771851 345.3343286514282 535.5231122970581Q345.9549560546875 536.6484289169312 345.9549560546875 538.2396974563599V550.0H341.5103368759155V547.5743770599365H341.3565855026245Q340.9331531524658 548.3862438201904 340.23049879074097 549.0093698501587Q339.5278444290161 549.632495880127 338.54002952575684 549.9856243133545Q337.55221462249756 550.338752746582 336.253457069397 550.338752746582ZM337.57311058044434 547.0528478622437Q338.68000411987305 547.0528478622437 339.51767015457153 546.6122159957886Q340.35533618927 546.1715841293335 340.82924604415894 545.4228248596191Q341.30315589904785 544.6740655899048 341.30315589904785 543.754997253418V541.8646631240845Q341.0890951156616 542.0087280273438 340.6712760925293 542.1348233222961Q340.253457069397 542.2609186172485 339.7390727996826 542.3606071472168Q339.22468852996826 542.4602956771851 338.7234306335449 542.5335774421692Q338.2221727371216 542.6068592071533 337.8327970504761 542.6621713638306Q336.9690408706665 542.7787342071533 336.31403160095215 543.0581102371216Q335.6590223312378 543.3374862670898 335.2965154647827 543.8053035736084Q334.93400859832764 544.273120880127 334.93400859832764 544.9778203964233Q334.93400859832764 545.6562671661377 335.27620124816895 546.1179919242859Q335.61839389801025 546.5797166824341 336.21152782440186 546.8162822723389Q336.80466175079346 547.0528478622437 337.57311058044434 547.0528478622437ZM354.63494300842285 539.8856105804443V550.0H349.9493942260742V532.53125H354.3736991882324L354.44838428497314 536.8921823501587H354.16744232177734Q354.85463428497314 534.7065477371216 356.25526237487793 533.5095238685608Q357.6558904647827 532.3125 359.86806869506836 532.3125Q361.68431663513184 532.3125 363.03353452682495 533.1023411750793Q364.38275241851807 533.8921823501587 365.1291584968567 535.3657755851746Q365.8755645751953 536.8393688201904 365.8755645751953 538.8893756866455V550.0H361.1900157928467V539.7059144973755Q361.1900157928467 538.0783987045288 360.35047578811646 537.1529211997986Q359.51093578338623 536.2274436950684 358.0287342071533 536.2274436950684Q357.04028606414795 536.2274436950684 356.2723078727722 536.6604170799255Q355.5043296813965 537.0933904647827 355.06963634490967 537.9082436561584Q354.63494300842285 538.7230968475342 354.63494300842285 539.8856105804443ZM373.2184076309204 550.2959337234497Q372.07341861724854 550.2959337234497 371.29170656204224 549.5226588249207Q370.50999450683594 548.7493839263916 370.50999450683594 547.612832069397Q370.50999450683594 546.4762802124023 371.29170656204224 545.7030053138733Q372.07341861724854 544.9297304153442 373.2184076309204 544.9297304153442Q374.3633966445923 544.9297304153442 375.1451086997986 545.7030053138733Q375.9268207550049 546.4762802124023 375.9268207550049 547.612832069397Q375.9268207550049 548.7493839263916 375.1451086997986 549.5226588249207Q374.3633966445923 550.2959337234497 373.2184076309204 550.2959337234497Z"/>
</svg>
